<svg xmlns="http://www.w3.org/2000/svg" viewBox="0 0 128 128"><circle fill="#517EA3" cx="64" cy="64" r="64"/><path fill-rule="evenodd" clip-rule="evenodd" fill="#FFF" d="M91.57 58.483h-6.24c.455 1.765.725 3.61.725 5.516 0 12.182-9.875 22.055-22.056 22.055-12.18 0-22.055-9.873-22.055-22.057 0-1.906.27-3.75.725-5.515h-6.24V88.81c0 1.522 1.234 2.756 2.76 2.756h49.62c1.526 0 2.76-1.234 2.76-2.755V58.484zm0-19.297c0-1.522-1.234-2.757-2.76-2.757h-8.268c-1.522 0-2.757 1.234-2.757 2.756v8.272c0 1.522 1.235 2.757 2.757 2.757h8.268c1.526 0 2.76-1.235 2.76-2.757v-8.272zM64 50.216c-7.614 0-13.785 6.17-13.785 13.782 0 7.613 6.17 13.787 13.784 13.787 7.613 0 13.785-6.174 13.785-13.787S71.613 50.215 64 50.215M91.57 99.84H36.43c-4.567 0-8.27-3.704-8.27-8.274V36.43c0-4.568 3.703-8.27 8.27-8.27h55.14c4.57 0 8.27 3.702 8.27 8.27v55.136c0 4.57-3.7 8.274-8.27 8.274"/></svg>