<svg xmlns="http://www.w3.org/2000/svg" viewBox="-233 329.6 144.1 134.4"><path fill-rule="evenodd" clip-rule="evenodd" fill="#FFF" d="M-162 463c35.9 0 65.3-29.3 65.3-65.3 0-35.9-29.3-65.3-65.3-65.3-35.9 0-65.3 29.3-65.3 65.3.1 36 29.4 65.3 65.3 65.3z"/><path fill-rule="evenodd" clip-rule="evenodd" fill="#0095D2" d="M-162 460.8c34.7 0 63.1-28.3 63.1-63.1 0-34.7-28.3-63.1-63.1-63.1-34.7 0-63.1 28.3-63.1 63.1.1 34.8 28.4 63.1 63.1 63.1z"/><radialGradient id="a" cx="-161.979" cy="397.778" r="60.658" gradientUnits="userSpaceOnUse"><stop offset="0" stop-color="#FFF"/><stop offset="1" stop-color="#F1F2F2"/></radialGradient><path fill-rule="evenodd" clip-rule="evenodd" fill="url(#a)" d="M-162 458.4c33.4 0 60.7-27.2 60.7-60.7 0-33.4-27.2-60.7-60.7-60.7-33.4 0-60.7 27.2-60.7 60.7.1 33.5 27.3 60.7 60.7 60.7z"/><path fill-rule="evenodd" clip-rule="evenodd" fill="#AC5109" d="M-130.3 439.6l7.9-1-.5 1.7c-.9 3-1.4 5.9-.2 8.9.3.9.8 1.7 1.2 2.5.5 1 1.1 2 1.5 3 .9 1.9 1.3 4.2.6 6.2-.6 1.6-1.9 2.7-3.6 3-1.4.2-2.9-.3-3.9-1.4-1.3-1.3-1.8-3.2-1.9-5l-1.1-17.9zm1.7 1.3l1 16.4c.1 1.4.5 3 1.5 4.1.7.7 1.6 1.1 2.5.9 1.1-.2 2-1 2.4-2 .6-1.6.2-3.5-.5-5l-1.5-3c-.5-.9-.9-1.8-1.3-2.7-1.2-3.2-.9-6.1 0-9.3l-4.1.6z"/><path fill-rule="evenodd" clip-rule="evenodd" fill="#F60" d="M-129.9 439.9l6.9-.9-.3 1.1c-.9 3.1-1.4 6-.2 9.1.3.9.8 1.7 1.2 2.6.5 1 1.1 2 1.5 3 .8 1.8 1.3 4 .5 5.9-.6 1.4-1.8 2.5-3.3 2.7-1.3.2-2.6-.3-3.5-1.3-1.2-1.3-1.7-3.1-1.8-4.8l-1-17.4zm.8.7l1 16.8c.5 8.8 10.4 5.9 6.6-2.2-2.4-5.2-5-7.2-2.6-15.3l-5 .7z"/><path fill-rule="evenodd" clip-rule="evenodd" d="M-130.2 426.7c3.4 0 7.3 3.4 8.8 7.7 1.5 4.3-.1 7.7-3.4 7.7-3.4 0-7.3-3.4-8.8-7.7-1.5-4.2 0-7.7 3.4-7.7z"/><circle fill-rule="evenodd" clip-rule="evenodd" fill="#5A1614" cx="-125.3" cy="434.4" r="1.7"/><path fill-rule="evenodd" clip-rule="evenodd" fill="#5A1614" d="M-119 440.3c-.1-.9-.5-1.8-1.1-2.6l-.9-2.3-3-2.7-3.5 2.9c-.9.7-1.3 1.8-1.4 2.9-.1 1.6.5 3.1 1.5 4.3 1.3 1.6 2.7 3.3 4 4.9 1.1 1.4 2.2 2.7 3.3 4.1l.2.2 4.3-2.3.2-.2-3.6-9.2z"/><path fill-rule="evenodd" clip-rule="evenodd" fill="#9A0000" d="M-127.3 435.8c-.7.6-1.2 1.5-1.3 2.6-.1 1.3.4 2.8 1.4 4 1.4 1.7 2.7 3.3 4 4.9 1.3 1.6 2 2.5 3.3 4.1l3.6-1.9-3.8-4.7c-1.3-1.6-2.7-3.3-4-4.9-.9-1.2-1.6-2.7-1.5-4.2V435.4v-.2c0-.1.1-.2.1-.3.1-.3.3-.6.5-.8-.5-.3-1.1-.2-1.5.1-.5.4-.6 1.2-.3 1.8l-.5-.2zm4.7 6.3l1.4 1.7-3.1 1.8-1.3-1.6 3-1.9z"/><path fill-rule="evenodd" clip-rule="evenodd" fill="#5A1614" d="M-116.4 440.9c.7-.8.9-1.9.8-3-.1-1.3-.6-2.5-1.4-3.5-.8-1-1.9-1.8-3.1-2.2-1.2-.4-2.4-.4-3.6.2-1.2.7-1.8 1.9-1.9 3.2-.1 1.6.5 3.1 1.5 4.3 1.3 1.6 2.7 3.3 4 4.9 1.3 1.6 2.6 3.2 3.9 4.7l.2.2.4-.2.1-.1c.5-.7.9-1.3 1.4-2l1.2-1.8.2-.2-.2-.2c-1.1-1.4-2.3-2.9-3.4-4.3h-.1z"/><path fill-rule="evenodd" clip-rule="evenodd" fill="#F00" d="M-123.5 432.8c-1 .6-1.6 1.6-1.7 2.9-.1 1.3.4 2.8 1.4 4 1.4 1.7 2.7 3.3 4 4.9 1.3 1.6 2.6 3.2 3.9 4.7.5-.7.9-1.3 1.4-2l1.2-1.8c-1.1-1.4-2.3-2.8-3.4-4.3l-.3-.4c.7-.8 1-1.9 1-3-.1-1.1-.5-2.3-1.3-3.3s-1.8-1.8-2.9-2.1c-1.1-.2-2.3-.2-3.3.4zm.9 1.1c.7-.4 1.6-.5 2.4-.2.8.3 1.6.8 2.2 1.6.6.8.9 1.7 1 2.5.1.8-.2 1.6-.8 2.2-.6.6-1.4.8-2.3.6-.9-.2-1.9-.7-2.6-1.6-.7-.9-1.1-1.9-1-2.9 0-1 .4-1.8 1.1-2.2zm.4.4c.6-.4 1.3-.4 2-.2s1.4.7 1.9 1.3c.5.7.8 1.4.8 2.1 0 .7-.2 1.4-.7 1.8-.5.5-1.2.6-2 .5-.8-.1-1.5-.6-2.1-1.4-.6-.7-.9-1.6-.9-2.4.1-.6.4-1.3 1-1.7z"/><path opacity=".8" fill-rule="evenodd" clip-rule="evenodd" fill="#FFF" d="M-122.3 440.8l6.5 7.9.5-1-5.9-6.9c-.4 0-.8-.3-1-.6 0 .2 0 .4-.1.6zm.9-2.1c-1.3-2.1-1-4.1 1.5-3.9-2.8-1.4-3.9 1.9-1.5 3.9zm-2.9-4.8c1.1-1.2 2-1.5 3.5-1.2-1.8 0-2.4.3-3.2 1.8l-.3-.6z"/><path fill-rule="evenodd" clip-rule="evenodd" fill="#CCC" d="M-162.6 457.1c3.9 0 7.8.1 11.5.4-3.5.6-7.1 1-10.8 1-3.8 0-7.5-.4-11.2-1 3.4-.3 6.9-.4 10.5-.4z"/><path fill-rule="evenodd" clip-rule="evenodd" d="M-181.5 400c2-2.1 4.3-3.9 6.7-5.3 3.7-2.1 8-3.2 12.4-3.3 4.4.1 8.7 1.2 12.4 3.3 2.1 1.2 4.1 2.7 6 4.5 6 1.8 13.8 5.9 21.5 11.4.7.5 1.4 1.1 2.1 1.6 3.9 2.7 5.1 7.5.5 13.3-.9 1.1-1.8 2.2-2.8 3.3-3.1 3.6-3.1 2.5-1.1 6.6 1.1 2.2 1.5 4.1 1 5.5-.8 2.2-3.7 2.8-7.9 1.9-.6 3-1.5 5.8-2.9 8.5-8.5 4.5-18.2 7.1-28.5 7.1-10.8 0-20.9-2.8-29.6-7.7-2.7-5.6-3.7-12-3-18.6-5.1-1.7-8.1-3-10.7-9-3.6-8.5 18.8-24.9 23.4-23.3.3.1.4.1.5.2z"/><path fill-rule="evenodd" clip-rule="evenodd" fill="#FFF" d="M-186 453.5c-5-8.7-4.6-19-1.1-28.4 1.3-3.5 2-7.2 3.2-10.7 2.1-6 6.1-12.1 11.7-15.5 2.9-1.8 6.3-2.7 9.7-2.8 3.4.1 6.8 1 9.7 2.8 5.6 3.4 9.6 9.5 11.7 15.5 1.2 3.5 1.9 7.2 3.2 10.7 3.6 9.6 3.9 20.1-1.3 28.9-7.1 2.9-14.8 4.5-22.9 4.5-8.4-.1-16.5-1.8-23.9-5z"/><path opacity=".15" fill-rule="evenodd" clip-rule="evenodd" d="M-186 453.5c-5-8.7-4.6-19-1.1-28.4 1.3-3.5 2-7.2 3.2-10.7 2.1-6 6.1-12.1 11.7-15.5 2.9-1.8 6.3-2.7 9.7-2.8 3.4.1 6.8 1 9.7 2.8 3 1.8 5.5 4.4 7.6 7.3-6.5 2.8-13.6 3.8-20.8 3.5-6-.3-6.6-1.9-10.1 3.2-2.4 3.5-4.3 7.2-5.7 10.9l6.8-1.2 13.7.5 8.4-6.5c1.3 16.7-10.6 21.7-26 14.7l-5.5 2.2c-1.2 8 0 14.1 3.9 20.6l1.2 1.8c-2.2-.6-4.5-1.5-6.7-2.4z"/><path fill-rule="evenodd" clip-rule="evenodd" d="M-197.7 383.4c-.7-7.8 4.2-10.2 7.5-17.2 1.2-2.6 1.8-5.3 3-7.9 2.6-5.9 7.2-10.7 12.7-13.5 7.2-3.5 17-3.5 24.2 0 5.5 2.7 10.1 7.5 12.7 13.5 1.1 2.6 1.8 5.3 3 7.9 3.2 6.9 8.2 9.4 7.5 17.2-2.4 26.9-68.2 26.9-70.6 0z"/><path fill-rule="evenodd" clip-rule="evenodd" fill="#FFF" d="M-140.7 398.4c-12.4 5.3-30.5 5.4-43 .2-3.6-1.5-5-2.7-7.4-5.9-5.5-7.2-1.2-11 8.7-12.7-10.7-5.6 1.2-33.5 15.1-22.6 7.1 5.6 3.4 4.9 10.4-.3 13.7-10.1 25.3 17.4 14.7 22.9 10.2 1.7 14.4 5.8 8 13.5-2.1 2.3-3.7 3.6-6.5 4.9z"/><path opacity=".1" fill-rule="evenodd" clip-rule="evenodd" d="M-176.3 400.9c-2.6-.6-5.1-1.4-7.4-2.4-3.6-1.5-5-2.7-7.4-5.9-5.5-7.2-1.2-11 8.7-12.7-10.7-5.6 1.2-33.5 15.1-22.6 2.8 2.2 3.9 3.4 4.7 3.8-4.9-.1-8.8 1.1-12.7 2.9-3.2 1.5-5.8 2.8-7.3 5.4-2.2 3.7.8 8.4 3 11.4-18.1 4.3-6.5 14.4 3.3 20.1zm14.4-39.8c.8-.4 1.8-1.8 4.9-4.1 7.4-5.4 14.2.1 17.2 7.2-3 3.9-6 2.2-9.8.2-3.9-2.1-7.1-3.2-12.3-3.3z"/><path fill-rule="evenodd" clip-rule="evenodd" fill="#CCC" d="M-166.5 395.8c.5 2 2.5 3.6 4.8 3.6s4.3-1.5 4.8-3.6c-1.4.8-3 1.3-4.8 1.3-1.8 0-3.4-.5-4.8-1.3z"/><path fill-rule="evenodd" clip-rule="evenodd" fill="#F6740D" d="M-146.3 386.2c-4.9 4.1-9.3 8.3-15.2 8.4-5.9-.4-10.3-4.8-15.2-9.1 4.9 2.7 9.8 4.1 15.2 5.5 5.4-1.2 10.3-2.4 15.2-4.8z"/><path opacity=".15" fill-rule="evenodd" clip-rule="evenodd" d="M-164.9 393.8c-4.3-1.5-7.9-5-11.8-8.4 4.9 2.7 9.8 4.1 15.2 5.5 2.6-.5 5.1-1.1 7.6-1.8-5.6 3.5-7.6 3.6-12.3 1.8-6.9-2.7-1.5.4 1.3 2.9z"/><path fill-rule="evenodd" clip-rule="evenodd" fill="#FD9E08" d="M-154.6 384.2c2.9.9 5.9 1.2 8.9 1.6-5.1 2.7-10.2 3.9-15.8 5.1-5.6-1.4-10.7-2.9-15.8-5.8 3-.3 6-.5 8.9-1.2 7.2-1.8 6.6-1.8 13.8.3z"/><path opacity=".5" fill-rule="evenodd" clip-rule="evenodd" fill="#FFF" d="M-163.8 383.8c.8-.2 1.6-.3 2.3-.2.9 0 1.7.2 2.5.4 1.4.3 2.8.8 4.1 1.2 2 .6 4 .9 6 1.2-4 1.7-8.2 2.7-12.6 3.7h-.1c3.5-.8 7-1.8 10.3-3.2-2.2-.3-4.4-.7-6.6-1.3-1.5-.4-3-.9-4.5-1.3-.4-.3-.9-.5-1.4-.5z"/><path fill-rule="evenodd" clip-rule="evenodd" fill="#AC5109" d="M-154.6 384.2c2.9.9 5.9 1.2 8.9 1.6l-.6.3c-4.9 4.1-9.3 8.3-15.2 8.4-5.9-.4-10.3-4.8-15.2-9.1l-.6-.3c3-.3 6-.5 8.9-1.2 7.2-1.8 6.6-1.8 13.8.3zm7 2.6c-4.4 2-8.9 3.1-13.8 4.1-4.9-1.3-9.4-2.5-13.8-4.8 1.5 1.4 3 2.7 4.6 3.9 1.8 1.4 3.8 2.7 6 3.4 1 .4 2.1.6 3.2.7 1.3 0 2.5-.2 3.7-.6 3.6-1.2 7-4.1 10.1-6.7zm-28.3-1.4c4.6 2.5 9.4 3.8 14.4 5.2 5.1-1.1 9.8-2.2 14.4-4.4-2.6-.4-5.2-.7-7.7-1.5l-4.2-1.2c-.9-.2-1.7-.4-2.6-.4-.9 0-1.8.1-2.6.3-1.4.3-2.8.6-4.2 1-2.4.5-5 .7-7.5 1z"/><path fill-rule="evenodd" clip-rule="evenodd" fill="#999" d="M-176.4 384.1c-2.4.5-2.4 1-.2 2.7-4.1-1.8-4.1-2.5.2-2.7z"/><path fill-rule="evenodd" clip-rule="evenodd" fill="#4C4C4C" d="M-165.75 405.96l-5.17.57-.744-6.76 5.17-.57z"/><path fill-rule="evenodd" clip-rule="evenodd" fill="#999" d="M-166.59 405.36l-3.68.406-.58-5.268 3.678-.405z"/><path fill-rule="evenodd" clip-rule="evenodd" fill="#4C4C4C" d="M-159.5 402.1l2.2 1.3c.6.4.8 1.2.5 1.8l-2.3 3.8c-.4.6-1.2.8-1.8.4l-2.2-1.3c-.6-.4-.8-1.2-.4-1.8l2.3-3.8c.3-.6 1.1-.8 1.7-.4z"/><path fill-rule="evenodd" clip-rule="evenodd" fill="#999" d="M-159.9 402.8l2.2 1.3c.3.2.3.5.2.8l-2.3 3.8c-.2.3-.5.3-.8.2l-2.2-1.3c-.3-.2-.3-.5-.2-.8l2.3-3.8c.2-.3.5-.4.8-.2z"/><path fill-rule="evenodd" clip-rule="evenodd" fill="#E5E5E5" d="M-159.9 402.8l2.2 1.3c.3.2.3.5.2.8l-2.3 3.8c-.1.2-.4.3-.7.2l.1-.1 2.3-3.8c.2-.3.1-.6-.2-.8l-2.2-1.3h-.1c.2-.2.5-.3.7-.1z"/><circle fill-rule="evenodd" clip-rule="evenodd" fill="#4C4C4C" cx="-167.1" cy="417.7" r="14.4"/><circle fill-rule="evenodd" clip-rule="evenodd" fill="#B2B2B2" cx="-167.1" cy="417.7" r="13.6"/><path fill-rule="evenodd" clip-rule="evenodd" fill="#999" d="M-168.6 404.2c4.1-.4 8 1 10.7 3.6-2.6-1.9-6-2.9-9.5-2.5-7.5.8-12.9 7.5-12 15l15.4-3.8c4.2 6.4-2.5 9.3-7.1 11.7-.8.4-1 .4.3 1.2 2.5 1.4 8.3.7 13.5-2.1-2.1 2.2-5 3.7-8.3 4.1-3.5.4-6.9-.6-9.5-2.6-.1 0-.1-.1-.2-.1l-.2-.2h-.1l-.2-.2-.2-.2-.4-.4-.2-.2-.2-.2c-.3-.3-.5-.6-.8-.9-.3-.3-.5-.7-.7-1-1.1-1.7-1.9-3.7-2.1-5.9-1-7.8 4.4-14.5 11.8-15.3z"/><path fill-rule="evenodd" clip-rule="evenodd" fill="#4C4C4C" d="M-168.2 405.6c6.7-.7 12.8 4.1 13.5 10.8.7 6.7-4.1 12.8-10.8 13.5-2.1.2-4.1-.1-5.9-.8 1.4.3 2.8.3 4.3.2 7.1-.8 12.3-6.5 11.6-12.8-.7-6.3-7-10.7-14.1-10-1.5.2-2.9.5-4.2 1.1 1.6-1.1 3.5-1.8 5.6-2z"/><path fill-rule="evenodd" clip-rule="evenodd" fill="#E5E5E5" d="M-169.3 408c0-.7 1.3-1.1 2.9-1 1.6.2 2.9.9 3 1.5 0 .7-1.3 1.1-2.9 1-1.7-.1-3-.8-3-1.5z"/><path fill-rule="evenodd" clip-rule="evenodd" d="M-195.2 432.3c1.4-.2 2.8-.5 4.3-.7 17.3-3.3 29.4-10 27-14.9-2.2-4.6-16.2-6.1-32.2-3.5-1.1.2-5.7.9-6.8 1.2-6.3 8.5-4.8 19.7 7.7 17.9z"/><ellipse transform="rotate(-85 -150.99 376.15)" fill-rule="evenodd" clip-rule="evenodd" fill="#00AEEF" cx="-151" cy="376.2" rx="4.9" ry="3.7"/><ellipse transform="rotate(-85 -150.99 376.15)" fill-rule="evenodd" clip-rule="evenodd" cx="-151" cy="376.2" rx="2.8" ry="2.1"/><ellipse transform="rotate(-85.013 -149.213 373.62)" fill-rule="evenodd" clip-rule="evenodd" fill="#FFF" cx="-149.2" cy="373.6" rx="1.9" ry="1.4"/><path fill-rule="evenodd" clip-rule="evenodd" d="M-178.1 378.5c1.7-3 7.5-1.9 9.9 1.4.3-3.3-2.1-5.6-4.4-5.3 1 .3 2.3 1.1 2.9 2.3-3.4-2.5-7.8-1-8.4 1.6zM-150.4 370.7c-2-.2-3.8 1.3-4.9 3.6 1.1-1.8 2.9-2.9 4.8-2.7 1.9.2 3.5 1.6 4.3 3.5-.6-2.5-2.2-4.3-4.2-4.4zM-149.8 365.5c2.7.3 4.7 2.7 5.4 5.9-2.3-4.4-6.2-5.6-10.5-3.6 1.4-1.6 3.2-2.5 5.1-2.3z"/><path fill-rule="evenodd" clip-rule="evenodd" d="M-169.7 371.2c-2.1-1.6-5.3-1.3-7.9.5 4.8-1.5 8.4.3 10 4.8.1-2.2-.6-4.1-2.1-5.3z"/><path fill-rule="evenodd" clip-rule="evenodd" fill="#AC5109" d="M-170.8 402.2l4.2-.5c.2 0 .5-.1.7 0 .2.1.3.4.3.6l.1.5c0 .2.1.5-.1.6-.2.2-.4.2-.6.2l-4.2.5c-.2 0-.5.1-.7 0-.2-.1-.3-.4-.3-.6v-.4c0-.2-.1-.5.1-.7-.1-.2.2-.1.5-.2z"/><path fill-rule="evenodd" clip-rule="evenodd" fill="#F60" d="M-170.8 402.6l4.2-.5c.4 0 .5-.2.5.3l.1.5c0 .4 0 .4-.4.4l-4.2.5c-.4 0-.5.2-.6-.2v-.4c-.2-.6-.1-.5.4-.6z"/><path fill-rule="evenodd" clip-rule="evenodd" fill="#AC5109" d="M-168.9 404c-1.7 2.8-5.1 5.8-8.4 6.8-2.3.7-4.7.3-6.5-1.4-1.2-1.2-1.9-2.8-2-4.5-.1-2 .7-3.9 1.9-5.4l1.5.6-.1.2c-1 1.3-1.7 2.9-1.7 4.6 0 1.3.6 2.5 1.5 3.4 1.4 1.3 3.2 1.6 5 1 2.8-.8 6-3.6 7.5-6v-.1l.4-.7 1.3.8-.4.7z"/><path fill-rule="evenodd" clip-rule="evenodd" fill="#F60" d="M-169.2 403.8c-1.7 2.7-5 5.6-8.2 6.6-2.2.6-4.4.3-6.1-1.3-1.2-1.1-1.8-2.6-1.9-4.2-.1-1.9.7-3.7 1.8-5.2.2.1.5.2.7.3l-.1.1c-1.1 1.4-1.8 3.1-1.7 4.8 0 1.4.6 2.7 1.6 3.7 1.5 1.4 3.5 1.7 5.4 1.1 2.9-.9 6.2-3.7 7.7-6.2v-.1l.2-.3.7.4-.1.3z"/><path fill-rule="evenodd" clip-rule="evenodd" fill="#AC5109" d="M-141.4 400.4c-.7 3.6-2.1 7.2-4.7 9.8-2 2.1-4.7 3.5-7.6 3.6-2.7.2-5.4-.7-7.6-2.3-2.6-1.9-5.9-4.9-7.1-7.9l-.3-.8 1.6-.7.3.8v.1c1.1 2.6 4.1 5.3 6.4 7 1.9 1.4 4.2 2.1 6.5 2 2.5-.1 4.8-1.3 6.5-3.1 2.3-2.3 3.5-5.5 4.2-8.7.7-.2 1.3-.5 1.9-.8l-.1 1z"/><path fill-rule="evenodd" clip-rule="evenodd" fill="#F60" d="M-141.7 400.3c-.7 3.5-2.1 7-4.6 9.6-2 2-4.5 3.4-7.4 3.5-2.7.2-5.2-.7-7.4-2.3-2.6-1.8-5.7-4.8-6.9-7.7l-.2-.4.9-.4.2.4v.1c1.1 2.7 4.2 5.4 6.6 7.2 2 1.4 4.3 2.2 6.8 2.1 2.6-.1 4.9-1.4 6.8-3.2 2.3-2.4 3.7-5.7 4.3-9v-.1c.4-.1.7-.3 1.1-.4l-.2.6z"/><path fill-rule="evenodd" clip-rule="evenodd" fill="#AC5109" d="M-169.6 402.1l2-.2c.3 0 .8-.2 1 .2.2.3-.2.6-.4.8l-.5.4c-.7.6-.8.8-1.7.2l-.6-.4c-.2-.1-.6-.3-.6-.6.1-.4.5-.4.8-.4z"/><path fill-rule="evenodd" clip-rule="evenodd" fill="#F60" d="M-169.6 402.5l2-.2c.6-.1.8-.2.2.3l-.5.4c-.6.5-.5.6-1.2.2l-.6-.4c-.4-.3-.5-.2.1-.3z"/><path fill-rule="evenodd" clip-rule="evenodd" fill="#4C4C4C" d="M-172.8 397.4l6.9-.8c.7-.1 1.4.5 1.5 1.2l.3 2.7c.1.7-.5 1.4-1.2 1.5l-6.9.8c-.7.1-1.4-.5-1.5-1.2l-.3-2.7c-.1-.7.5-1.4 1.2-1.5z"/><path fill-rule="evenodd" clip-rule="evenodd" fill="#999" d="M-172.7 398.2l6.9-.8c.3 0 .6.2.6.5l.3 2.7c0 .3-.2.6-.5.6l-6.9.8c-.3 0-.6-.2-.6-.5l-.3-2.7c0-.3.2-.6.5-.6z"/><path fill-rule="evenodd" clip-rule="evenodd" fill="#B2B2B2" d="M-172.7 398.2h.4l.4 3.8h-.4c-.1 0-.3 0-.4-.1l-.4-3.5c.1-.1.3-.2.4-.2zm1.2-.1l.8-.1.4 3.8-.8.1-.4-3.8zm1.5-.2l.8-.1.4 3.8-.8.1-.4-3.8zm1.5-.2l.8-.1.4 3.8-.8.1-.4-3.8zm1.6-.2l.8-.1.4 3.8-.8.1-.4-3.8z"/><path fill-rule="evenodd" clip-rule="evenodd" fill="#4C4C4C" d="M-172.7 397.9l.8-.1.5 4.4-.8.1-.5-4.4zm6.1-.7l.8-.1.5 4.4-.8.1-.5-4.4zm-1.5.2l.8-.1.5 4.4-.8.1-.5-4.4zm-1.6.2l.8-.1.5 4.4-.8.1-.5-4.4zm-1.5.1l.8-.1.5 4.4-.8.1-.5-4.4z"/><path fill-rule="evenodd" clip-rule="evenodd" fill="#BA0000" d="M-162.4 332.7c1.3 0 2.3-.7 2.3-1.5s-1.1-1.5-2.3-1.5c-1.3 0-2.3.7-2.3 1.5-.1.9 1 1.5 2.3 1.5z"/><path fill-rule="evenodd" clip-rule="evenodd" fill="#9A0000" d="M-185 357.9v-.3c-.1-.5-.1-1.1-.1-1.6-.1-3.6-.1-7.4.6-10.9.5-3 1.6-5.8 3.5-8.1 2.5-3 6.1-4.5 9.8-5.4 6.2-1.6 11.8-1.6 18 .1 3.6.9 7 2.5 9.4 5.3 2 2.3 3 5.1 3.5 8.1.6 3.5.7 7.3.6 10.9 0 .5 0 1.1-.1 1.6v.3c-.5 3.6-2.6 6.5-6.1 3.7-9.7-8-23.2-8-33 0-3.5 2.9-5.6-.1-6.1-3.7z"/><path fill-rule="evenodd" clip-rule="evenodd" fill="#F00" d="M-153.4 332.5c.9.2 1.8.5 2.6.8.1 0 .2.1.2.1 1.9 1.1 3.6 2.4 4.7 4.4 1.4 2.5 1.7 5.6 1.7 8.5 0 .9 0 1.9-.1 2.8-10-6.1-26.5-6.1-36.4 0 0-.9-.1-1.9-.1-2.8 0-2.9.3-6 1.7-8.5 1.1-2 2.8-3.3 4.7-4.4.1 0 .2-.1.2-.1.9-.3 1.9-.6 2.9-.9 6.4-1.6 11.7-1.6 17.9.1zm7 3.2c.5.5.9 1.1 1.2 1.8 1.5 2.7 1.8 5.9 1.8 8.9 0 1.1 0 2.2-.1 3.3.7.5 1.3.9 1.9 1.5.4.4.8.8 1 1.4.1-8.4-1.5-13.7-5.8-16.9zm-38 16.9c.3-.6.6-1.1 1-1.4.6-.5 1.3-1 1.9-1.5 0-1.1-.1-2.2-.1-3.3 0-3 .3-6.3 1.8-8.9.4-.6.8-1.2 1.2-1.7-4.1 3.1-5.7 8.4-5.8 16.8z"/><path opacity=".2" fill-rule="evenodd" clip-rule="evenodd" d="M-184.4 352.6c.1-12 3.3-17.6 13.3-20.2-6.5 7.6-2.2 10.8 4.7 12.4-6.5.6-12.8 2.7-17 6.4-.4.3-.7.8-1 1.4zm34.9-5.9z"/><path opacity=".5" fill-rule="evenodd" clip-rule="evenodd" fill="#FFF" d="M-153.4 332.5c.9.2 1.8.5 2.6.8.1 0 .2.1.2.1 1.9 1.1 3.6 2.4 4.7 4.4l.6 1.2c-2.1-2.9-5.4-4.8-10.1-6.1-4.9-1.3-9.3-1.6-14-1 5.5-1.1 10.4-.9 16 .6zm7 3.2c.5.5.9 1.1 1.2 1.8.8 1.4 1.2 2.9 1.5 4.5 1.1 2.4 1.6 5.4 1.9 9l.3.3c.4.4.8.8 1 1.4 0-8.5-1.6-13.8-5.9-17z"/><path fill-rule="evenodd" clip-rule="evenodd" fill="#5A1614" d="M-141.5 352.5c-10.2-8.7-31.7-8.7-41.9 0-3.5 3-1.6 15.4 4.5 10.5 9.7-8 23.2-8 33 0 6 4.9 7.9-7.5 4.4-10.5z"/><path fill-rule="evenodd" clip-rule="evenodd" fill="#BA0000" d="M-141.5 351.1c-10.2-8.7-31.7-8.7-41.9 0-3.5 3-1.6 15.4 4.5 10.5 9.7-8 23.2-8 33 0 6 5 7.9-7.5 4.4-10.5z"/><path opacity=".1" fill-rule="evenodd" clip-rule="evenodd" d="M-158.5 344.8c-9.1-.8-18.9 1.3-24.8 6.4-1.1.9-1.6 2.8-1.7 4.7 3.1-8.8 18.8-11.1 26.5-11.1z"/><path opacity=".25" fill-rule="evenodd" clip-rule="evenodd" fill="#FFF" d="M-141.5 351.1c-3.6-3-8.5-5-13.8-5.9 3.3 1.5 7.2 2.5 9.7 5.3.8.9 1.2 1.7 1.3 3 .1 2.3-1.2 4.8-3.8 4.2-10.6-4.2-17.1-4-25.8.7 9-4.5 19.8-3.5 28 3.2 6 5 7.9-7.5 4.4-10.5zm-35.3 9z"/><path fill-rule="evenodd" clip-rule="evenodd" fill="#9A0000" d="M-141.5 351.1c-10.2-8.7-31.7-8.7-41.9 0-3.5 3-1.6 15.4 4.5 10.5 9.7-8 23.2-8 33 0 6 5 7.9-7.5 4.4-10.5zm-.3.4c1.3 1.1 1.6 3.6 1.6 5.2-.1 1.7-.6 4.7-2.4 5.4-1.1.4-2.2-.3-3-.9-9.9-8.1-23.7-8.1-33.6 0-.8.7-1.9 1.3-3 .9-1.8-.7-2.3-3.8-2.4-5.4-.1-1.6.3-4.1 1.6-5.2 10-8.6 31.2-8.6 41.2 0z"/><path fill="#FFF" d="M-176.6 338.9c-.5.2-.9.3-1.4.5v1h.3v2.8c-.1.1-.2.1-.3.1v1c.4-.1.9-.2 1.3-.3v-1.1h-.3v-1.3-1.3l.3.9.3.9c.2 0 .3-.1.5-.1.1-.4.2-.7.3-1.1.1-.4.2-.7.3-1.1v2.6c-.1 0-.2.1-.3.1v1.1c.4-.1.9-.2 1.3-.3v-1.1h-.3v-1.4-1.4c.1 0 .2-.1.3-.1v-1.1c-.5.1-.9.3-1.4.4-.1.3-.2.6-.2.9-.1.3-.2.6-.2.9-.1-.3-.2-.5-.2-.8-.1-.1-.2-.4-.3-.7zm26.6 3.5v1.1c.4.1.9.2 1.3.3v-1.1c-.1 0-.2-.1-.3-.1v-.8c.4.1.7.2 1.1.3v.8h-.3v1c.4.1.9.3 1.3.4v-1.1c-.1 0-.2-.1-.3-.1v-1.4-1.4h.3v-1c-.4-.1-.9-.3-1.3-.4v1.1c.1 0 .2.1.3.1v.8c-.4-.1-.7-.2-1.1-.3v-.8h.3v-1.1c-.4-.1-.9-.3-1.3-.4v1.1c.1 0 .2.1.3.1v2.8c-.1.1-.2.1-.3.1zm-1-3c0 .2 0 .5.1.7.2.1.5.1.7.2v-.9-.9c-.5-.2-1.1-.3-1.6-.4-.3-.1-.6.1-.9.4-.2.3-.4.8-.4 1.3v1.2c0 .5.1 1 .4 1.4.2.4.5.7.9.7.5.1 1.1.2 1.6.4v-.9-.9c-.2-.1-.5-.1-.7-.2 0 .2 0 .4-.1.7-.3-.1-.6-.1-.9-.2-.2-.1-.4-.4-.4-.8v-.6-.6c0-.4.2-.6.4-.6.3-.2.6-.1.9 0zm-4.5 3v-1.1c-.1 0-.2 0-.2-.1s0-.2.1-.3c.4 0 .7.1 1.1.2 0 .1 0 .2.1.3h-.2v1.1c.4.1.9.1 1.3.2v-1.1c-.1 0-.2-.1-.3-.1-.1-.7-.3-1.4-.4-2.1-.1-.7-.3-1.4-.4-2.1-.5-.1-1-.2-1.6-.3v1c.1 0 .2 0 .3.1l-.3 1.5-.3 1.5h-.3v1.1c.2.1.7.2 1.1.2zm.1-2.6c0-.2.1-.4.1-.6 0-.2.1-.4.1-.6 0 .2.1.5.1.7 0 .2.1.5.1.7 0-.1-.2-.1-.4-.2zm-3.3-3c-.3 0-.6.2-.9.5-.2.3-.4.8-.4 1.4v1.4c0 .5.1 1.1.4 1.4.2.4.5.6.9.6h.3c.3 0 .6-.2.8-.5.2-.3.4-.8.4-1.4v-.7-.7c0-.5-.1-1.1-.4-1.4-.2-.4-.5-.6-.8-.7 0 .1-.1.1-.3.1zm.8 3.4c0 .4-.2.7-.4.7h-.3c-.2 0-.4-.4-.4-.8v-.7-.7c0-.4.2-.7.4-.7h.3c.2 0 .4.4.4.8v1.4zm-3-2.3c0 .2 0 .5.1.7h.7v-1-1c-.5 0-1.1-.1-1.6-.1-.3 0-.6.2-.9.6-.2.4-.4.9-.4 1.4v1.4c0 .6.1 1.1.4 1.4.2.4.5.6.9.6h1.6v-1-1h-.7c0 .2 0 .5-.1.7h-.9c-.2 0-.4-.3-.4-.7v-.7-.7c0-.4.2-.7.4-.7.3.1.6.1.9.1zm-2.7 4.2c-.2 0-.4-.3-.4-.6s.2-.6.4-.6.4.3.4.6-.2.6-.4.6zm-.9 0v-1-1h-.7c0 .3-.1.6-.1.9h-.7v-1h.5v-1.2h-.5v-.9h.7c0 .3.1.6.1.8h.7v-1-1c-.8.1-1.7.1-2.5.2v1.2h.3v3c-.1 0-.2.1-.3.1v1.1c.9-.1 1.7-.2 2.5-.2zm-2.9-2.8c-.5 0-.9.1-1.4.2v1.2c.2 0 .5-.1.7-.1v.6c-.3 0-.6.1-.9.1-.2 0-.4-.3-.4-.7v-.7-.7c0-.4.2-.8.4-.8h.2c.2 0 .4-.1.6-.1 0 .2 0 .5.1.7.2 0 .5 0 .7-.1v-1-1c-.5.1-.9.1-1.4.2h-.2c-.3.1-.6.3-.9.7-.2.4-.4.9-.4 1.5v1.4c0 .6.1 1 .4 1.4.2.3.5.5.9.5.5-.1 1.1-.1 1.6-.2v-1.5-1.6zm-5.2 3.8V342h-.2c0-.1 0-.2.1-.4.4-.1.7-.2 1.1-.2 0 .1 0 .2.1.3-.1 0-.2.1-.2.1v1.1c.4-.1.9-.1 1.3-.2v-1.2h-.3c-.1-.7-.3-1.3-.4-2-.1-.7-.3-1.3-.4-2-.5.1-1 .2-1.6.4v1h.3c-.1.5-.2 1.1-.3 1.6-.1.5-.2 1.1-.3 1.6-.1 0-.2.1-.3.1v1.1c.3-.1.7-.1 1.1-.2zm.1-2.7c0-.2.1-.5.1-.7 0-.2.1-.5.1-.7 0 .2.1.4.1.6 0 .2.1.4.1.6 0 .1-.2.2-.4.2z"/></svg>
