<svg id="Layer_1" data-name="Layer 1" xmlns="http://www.w3.org/2000/svg" viewBox="0 0 100 100"><defs><style>.cls-1{fill:#0095d2;}.cls-10,.cls-11,.cls-13,.cls-14,.cls-15,.cls-16,.cls-17,.cls-18,.cls-2,.cls-3,.cls-4,.cls-5,.cls-6,.cls-7,.cls-8,.cls-9{fill-rule:evenodd;}.cls-18,.cls-20,.cls-3,.cls-9{fill:#fff;}.cls-4{opacity:0.1;}.cls-5{fill:#ccc;}.cls-6{fill:#f6740d;}.cls-7{opacity:0.15;}.cls-8{fill:#fd9e08;}.cls-9{opacity:0.5;}.cls-10{fill:#ac5109;}.cls-11{fill:#999;}.cls-12,.cls-17{fill:#ba0000;}.cls-13{fill:#9a0000;}.cls-14{fill:red;}.cls-15{opacity:0.2;}.cls-16{fill:#5a1614;}.cls-18{opacity:0.25;}.cls-19{fill:#00aeef;}</style></defs><title>Artboard 1</title><circle class="cls-1" cx="50" cy="50" r="48"/><path class="cls-2" d="M8.48,67.09c-.83-9.2,5-12,8.78-20.2,1.4-3,2.14-6.25,3.47-9.28a32,32,0,0,1,15-15.83,34,34,0,0,1,28.46,0,32,32,0,0,1,15,15.83c1.33,3,2.07,6.27,3.47,9.28,3.8,8.16,9.6,11,8.78,20.2C88.54,98.67,11.32,98.67,8.48,67.09Z"/><path class="cls-3" d="M75.4,84.69C60.87,91,39.56,91,24.89,84.88c-4.21-1.76-5.92-3.19-8.75-6.93C9.73,69.44,14.74,65,26.33,63,13.79,56.47,27.79,23.67,44,36.4c8.37,6.57,4,5.79,12.26-.33C72.32,24.25,86,56.52,73.54,63c12,2,17,6.76,9.43,15.89A18.08,18.08,0,0,1,75.4,84.69Z"/><path class="cls-4" d="M33.59,87.66a53.13,53.13,0,0,1-8.7-2.79c-4.21-1.76-5.92-3.19-8.75-6.93C9.73,69.44,14.74,65,26.33,63,13.79,56.47,27.79,23.67,44,36.4c3.32,2.6,4.63,4,5.52,4.47a31.23,31.23,0,0,0-14.89,3.46c-3.79,1.81-6.82,3.33-8.55,6.31-2.55,4.39,1,9.81,3.49,13.44-21.07,5.06-7.47,16.86,4,23.59Zm16.9-46.77c.91-.42,2.08-2.09,5.78-4.82,8.67-6.39,16.63.1,20.17,8.44C72.95,49,69.36,47.14,65,44.78A29,29,0,0,0,50.49,40.89Z"/><path class="cls-5" d="M45.15,81.66a5.89,5.89,0,0,0,11.27,0,10.85,10.85,0,0,1-11.27,0Z"/><path class="cls-6" d="M68.9,70.34c-5.76,4.84-11,9.72-17.88,9.85-6.91-.47-12.11-5.61-17.88-10.73h0C38.89,72.66,44.67,74.33,51,76c6.35-1.32,12.13-2.71,17.86-5.61Z"/><path class="cls-7" d="M47,79.36c-5-1.74-9.25-5.82-13.84-9.89h0C38.89,72.66,44.67,74.33,51,76c3.09-.64,6-1.3,8.92-2.14-6.63,4.08-9,4.26-14.43,2.13C37.42,72.78,43.7,76.4,47,79.36Z"/><path class="cls-8" d="M59.11,68.06A77.92,77.92,0,0,0,69.54,70C63.59,73.14,57.61,74.59,51,76c-6.59-1.69-12.58-3.43-18.53-6.86a76.34,76.34,0,0,0,10.43-1.43C51.34,65.6,50.7,65.58,59.11,68.06Z"/><path class="cls-9" d="M48.27,67.53A12.74,12.74,0,0,1,51,67.24a13.56,13.56,0,0,1,3,.47c1.62.41,3.25.91,4.85,1.39a52,52,0,0,0,7,1.44A76.38,76.38,0,0,1,51,74.84l-.12,0A70.9,70.9,0,0,0,63,71a57.21,57.21,0,0,1-7.71-1.58c-1.76-.52-3.55-1.08-5.33-1.52C49.41,67.76,48.84,67.63,48.27,67.53Z"/><path class="cls-10" d="M59.11,68.06A77.92,77.92,0,0,0,69.54,70l-.68.35h0c-5.76,4.84-11,9.72-17.88,9.85-6.91-.47-12.11-5.61-17.88-10.73h0l-.67-.38a76.34,76.34,0,0,0,10.43-1.43c8.42-2.07,7.77-2.09,16.19.4Zm8.18,3C62.07,73.51,56.78,74.76,51,76A77.23,77.23,0,0,1,34.8,70.34h0c1.77,1.59,3.55,3.19,5.44,4.64a24.55,24.55,0,0,0,7,4,15.07,15.07,0,0,0,3.77.76,14.83,14.83,0,0,0,4.3-.74c4.39-1.43,8.37-4.84,12-7.89ZM34,69.42c5.42,2.89,11,4.52,17,6.05,5.94-1.24,11.56-2.59,17-5.22a64.21,64.21,0,0,1-9-1.73c-1.62-.48-3.25-1-4.88-1.39A14.13,14.13,0,0,0,51,66.63a13.86,13.86,0,0,0-3.09.34c-1.63.33-3.26.76-4.88,1.16A63,63,0,0,1,34,69.42Z"/><path class="cls-11" d="M33.53,68c-2.79.58-2.84,1.17-.26,3.21C28.48,69,28.38,68.17,33.53,68Z"/><ellipse class="cls-12" cx="49.93" cy="5.8" rx="2.76" ry="1.77"/><path class="cls-13" d="M23.41,37.18h0v-.34A14.11,14.11,0,0,1,23.3,35a60.09,60.09,0,0,1,.65-12.81,19.89,19.89,0,0,1,4.14-9.51C31,9.19,35.23,7.39,39.55,6.29a39.73,39.73,0,0,1,21.15.1c4.19,1.11,8.22,2.9,11.09,6.27a19.88,19.88,0,0,1,4.14,9.5A60.07,60.07,0,0,1,76.57,35a14.18,14.18,0,0,1-.08,1.87v.34h0c-.56,4.21-3,7.68-7.15,4.31a30.19,30.19,0,0,0-38.73,0C26.45,44.86,24,41.38,23.41,37.18Z"/><path class="cls-14" d="M60.46,7.26c1.09.29,2.11.61,3.06,1l.28.16a13.75,13.75,0,0,1,5.54,5.17c1.68,3,2,6.62,2,10,0,1.11,0,2.22-.06,3.33-11.71-7.17-31.09-7.15-42.78,0,0-1.11-.07-2.22-.06-3.33,0-3.37.34-7,2-10A13.75,13.75,0,0,1,36,8.39l.29-.16a33.18,33.18,0,0,1,3.43-1.06,38.69,38.69,0,0,1,20.69.1ZM68.71,11a12.63,12.63,0,0,1,1.46,2.06c1.78,3.13,2.13,6.92,2.15,10.49,0,1.31,0,2.62-.08,3.93a24.32,24.32,0,0,1,2.28,1.72,4.8,4.8,0,0,1,1.2,1.67c-.07-9.82-1.91-16-7-19.86ZM24.14,30.87a4.8,4.8,0,0,1,1.2-1.67,24.44,24.44,0,0,1,2.28-1.72c-.06-1.31-.09-2.62-.08-3.93,0-3.56.38-7.36,2.15-10.49A12.57,12.57,0,0,1,31.15,11h0C26.05,14.87,24.21,21.05,24.14,30.87Z"/><path class="cls-15" d="M24.14,30.87c.1-14.09,3.85-20.69,15.63-23.7-7.67,8.92-2.54,12.72,5.56,14.56-7.69.71-15,3.2-20,7.47a4.8,4.8,0,0,0-1.2,1.67Zm41-6.89h0Z"/><path class="cls-9" d="M60.46,7.26c1.09.29,2.11.61,3.06,1h0l.29.16a13.75,13.75,0,0,1,5.54,5.17A12.16,12.16,0,0,1,70,15c-2.51-3.41-6.31-5.66-11.83-7.12A40.41,40.41,0,0,0,41.73,6.71a38.37,38.37,0,0,1,18.73.56ZM68.71,11h0a12.57,12.57,0,0,1,1.46,2.06,15.87,15.87,0,0,1,1.76,5.23,31.37,31.37,0,0,1,2.19,10.57l.41.34a4.8,4.8,0,0,1,1.2,1.67C75.66,21,73.81,14.86,68.71,11Z"/><path class="cls-16" d="M74.53,30.77c-12-10.27-37.2-10.23-49.19,0-4.1,3.5-1.88,18.12,5.23,12.29a30.2,30.2,0,0,1,38.73,0C76.4,48.89,78.63,34.27,74.53,30.77Z"/><path class="cls-17" d="M74.53,29.2c-12-10.27-37.2-10.23-49.19,0-4.1,3.5-1.88,18.12,5.23,12.29a30.19,30.19,0,0,1,38.73,0C76.4,47.32,78.63,32.69,74.53,29.2Z"/><path class="cls-4" d="M54.47,21.71c-10.72-1-22.16,1.53-29.14,7.48-1.27,1.08-1.93,3.23-2,5.51C27,24.41,45.46,21.75,54.47,21.71Z"/><path class="cls-18" d="M74.53,29.2c-4.18-3.57-10-5.89-16.21-7,3.91,1.81,8.52,3,11.35,6.24a5.17,5.17,0,0,1,1.47,3.48c.1,2.67-1.38,5.66-4.5,4.9-12.44-5-20.15-4.66-30.26.86a30.13,30.13,0,0,1,32.91,3.79c7.11,5.83,9.33-8.8,5.23-12.29ZM33,39.68l0,0,0,0Z"/><ellipse class="cls-19" cx="35.99" cy="58.59" rx="4.35" ry="5.8" transform="translate(-4.97 3.36) rotate(-5)"/><ellipse cx="35.99" cy="58.59" rx="2.46" ry="3.28" transform="translate(-4.97 3.36) rotate(-5)"/><ellipse class="cls-20" cx="37.54" cy="55.29" rx="1.63" ry="2.18" transform="matrix(1, -0.09, 0.09, 1, -4.68, 3.48)"/><ellipse class="cls-19" cx="63.34" cy="58.59" rx="5.8" ry="4.35" transform="translate(-0.54 116.58) rotate(-85)"/><ellipse cx="63.34" cy="58.59" rx="3.28" ry="2.46" transform="translate(-0.54 116.58) rotate(-85)"/><ellipse class="cls-20" cx="65.43" cy="55.61" rx="2.18" ry="1.63" transform="translate(4.33 115.93) rotate(-84.99)"/><path class="cls-2" d="M35.25,52.14c-2.33.2-4.18,2.27-4.92,5.11a6.1,6.1,0,0,1,5-4.09A6.1,6.1,0,0,1,41,56.32C39.77,53.65,37.58,51.94,35.25,52.14Z"/><path class="cls-2" d="M64.08,52.14c-2.33-.2-4.51,1.51-5.73,4.18A5.74,5.74,0,0,1,69,57.26C68.26,54.41,66.41,52.34,64.08,52.14Z"/><path class="cls-2" d="M64.8,46.09c3.13.36,5.53,3.18,6.29,6.91-2.73-5.2-7.28-6.6-12.33-4.2A7,7,0,0,1,64.8,46.09Z"/><path class="cls-2" d="M34.84,46.09c-3.13.36-5.53,3.18-6.29,6.91,2.73-5.2,7.28-6.6,12.33-4.2A7,7,0,0,0,34.84,46.09Z"/><path class="cls-13" d="M74.53,29.2c-12-10.27-37.2-10.23-49.19,0-4.1,3.5-1.88,18.12,5.23,12.29a30.19,30.19,0,0,1,38.73,0c7.11,5.83,9.33-8.8,5.23-12.29Zm-.37.43c1.54,1.32,1.9,4.25,1.84,6.15s-.73,5.53-2.81,6.35c-1.25.5-2.59-.3-3.54-1.07a30.76,30.76,0,0,0-39.44,0c-.94.77-2.29,1.57-3.54,1.07-2.08-.82-2.75-4.41-2.81-6.35s.3-4.83,1.84-6.15C37.5,19.56,62.36,19.56,74.16,29.63Z"/><path class="cls-20" d="M33.28,14.87l-1.6.55v1.23L32,16.6v3.21l-.35.17v1.21l1.53-.4V19.54l-.36,0v-3l.35,1.08.36,1.09.58-.16.35-1.31L34.86,16V19l-.36.16v1.28L36,20.12V18.84h-.36V15.49l.36-.16V14l-1.6.48-.29,1.11-.28,1.11-.29-.93-.28-.92Zm31.27,4.07v1.25l1.54.39V19.33l-.36-.17v-1l1.29.38v1l-.36,0v1.23l1.54.45V20l-.36-.17V16.6l.36,0V15.42l-1.54-.49v1.25l.36.17v1l-1.29-.39v-1l.36,0V14.75l-1.54-.45v1.26l.37.16V19l-.37,0Zm-1.27-3.58.08.81.81.21V14.19c-.64-.18-1.27-.34-1.9-.49a.94.94,0,0,0-1,.41,2.58,2.58,0,0,0-.41,1.5v1.52a3.47,3.47,0,0,0,.41,1.67,1.63,1.63,0,0,0,1,.86c.63.13,1.26.26,1.9.42V17.9l-.81-.2-.08.78-1-.22c-.29-.06-.52-.48-.52-.94V15.81c0-.45.23-.76.52-.69l1,.24ZM58.05,19V17.65l-.27-.08.08-.38,1.27.18c0,.13.05.26.08.4h-.27v1.32l1.53.25V18l-.3-.1q-.26-1.22-.52-2.44L59.13,13l-1.84-.31V13.9l.34.09c-.13.57-.27,1.14-.39,1.71s-.26,1.15-.39,1.72l-.33,0v1.34l1.53.18Zm.11-3.07c.05-.25.12-.5.17-.75s.12-.5.17-.75l.16.8c.05.26.11.53.17.8l-.68-.1Zm-3.82-3.56a1.1,1.1,0,0,0-1,.61,3.14,3.14,0,0,0-.41,1.64v1.59a3.39,3.39,0,0,0,.41,1.68,1.31,1.31,0,0,0,1,.74l.38,0a1.1,1.1,0,0,0,1-.59,3,3,0,0,0,.42-1.6V14.87a3.48,3.48,0,0,0-.42-1.69,1.43,1.43,0,0,0-1-.8l-.38,0Zm.9,4c0,.46-.23.82-.52.8l-.38,0c-.28,0-.51-.42-.51-.88V14.65c0-.47.23-.85.51-.82l.38,0c.29,0,.52.44.52.91v1.57Zm-3.59-2.68.08.84.82,0V12.22c-.64,0-1.27-.06-1.9-.07a1.19,1.19,0,0,0-1,.67,3.38,3.38,0,0,0-.41,1.69v1.6a3.3,3.3,0,0,0,.41,1.68,1.25,1.25,0,0,0,1,.69l1.9,0V16.18l-.82,0-.08.85-1,0c-.29,0-.52-.4-.52-.88v-1.6c0-.48.23-.86.52-.85l1,0Zm-3.17,4.85c-.25,0-.45-.33-.45-.75s.2-.75.45-.76h0c.25,0,.45.33.45.74s-.2.76-.45.77Zm-1,0V16.18l-.82.05-.09,1-.84.05V16.15l.62,0V14.72l-.62,0v-1.1l.84-.06.09,1,.82-.05V12.16c-1,.06-2,.13-2.93.23v1.38l.36,0v3.52l-.36.12v1.35c1-.1,1.95-.16,2.93-.22Zm-3.37-3.31c-.54.06-1.09.12-1.63.2v1.37l.81-.11v.68l-1.09.15c-.28,0-.52-.32-.52-.79v-1.6c0-.47.23-.89.52-.94l.28,0,.73-.1.08.84.82-.09V12.45c-.54.06-1.09.12-1.63.21l-.28,0a1.52,1.52,0,0,0-1,.85,3.67,3.67,0,0,0-.41,1.73v1.6a3,3,0,0,0,.41,1.6,1,1,0,0,0,1,.56c.64-.08,1.27-.16,1.91-.22V15.25ZM38,19.72V18.38h-.27l.09-.42,1.27-.25c0,.13.05.25.08.38l-.28.1v1.35l1.53-.25V17.94h-.3l-.52-2.34c-.17-.77-.35-1.55-.52-2.32-.61.13-1.23.28-1.84.44V14.9l.34,0c-.13.63-.27,1.25-.39,1.87l-.39,1.86-.33.13V20l1.53-.3Zm.11-3.15c.05-.27.12-.55.17-.83s.12-.55.17-.83l.16.75c.05.25.11.5.17.75Z"/></svg>