<svg xmlns="http://www.w3.org/2000/svg" width="90.488" height="19.543" viewBox="95 282.9 802.4 229.1"><g fill="#FFF"><path d="M535.8 439V420.9c0-19.4 15.7-35 35.1-35h43.8v8.5c6.3-5.5 14.4-8.5 22.9-8.5h6.9c19.4 0 35.1 15.7 35.1 35.1v8.4l4.2-11.8-2.5-.2v-31.5h49.4l14.9 42.2v-7.2c0-19.4 15.7-35 35.1-35h116.5v32.2l-6.5.9v20.9l6.6.8v32.5H780.9c-8.6 0-16.7-3.1-23-8.6v8.6h-90.3v-8.6c-6.3 5.5-14.4 8.6-23 8.6h-6.9c-8.5 0-16.6-3.1-22.9-8.6v8.6H571c-9.3 0-18.2-3.7-24.7-10.1-2.8 6-8.9 10.1-15.9 10.1h-.5c-2.2 0-4.4-.4-6.5-1.2v1.2H418.5c-8.5 0-16.6-3.1-22.9-8.5v8.5H218.9v-32.1l6.5-.9v-21.1l-6.5-.7v-32.5h44.6l4.1 9.4 4.2-9.4h44.6v32.6l-6.5.7V440l3.8-.4 7.9-22-2.5-.2v-31.5h49.4l14.9 42.2v-7.2c0-19.3 15.7-35 35-35h33v-.1h71.8v53.5c2-.8 4.2-1.2 6.5-1.2h.5c2 0 3.8.3 5.6.9zm-266.1 31H392.4v-13.6c5.8 8.2 15.3 13.6 26.1 13.6h101.7v-3.7c2.6 2.3 5.9 3.7 9.6 3.7h.5c7.7 0 14-6 14.4-13.6 5.8 8.2 15.3 13.6 26.2 13.6h40.7v-13.6c5.8 8.2 15.3 13.6 26.1 13.6h6.9c10.8 0 20.4-5.4 26.2-13.6V470h84v-13.6c5.8 8.2 15.3 13.6 26.2 13.6h113.4v-26.6l-6.6-.8v-26.4l6.5-.9V389H780.9c-17.6 0-31.9 14.2-31.9 31.8V438c0 1.6.1 3.1.3 4.6l-1.7-.2-18.9-53.5h-44v25.3l3.7.2-10 27.8-2.1.2c.2-1.5.3-3 .3-4.5v-17c0-17.6-14.3-31.9-31.9-31.9h-6.9c-10.8 0-20.3 5.4-26.1 13.6v-13.5H571c-17.6 0-31.9 14.2-31.9 31.8v17.2c0 2.3.2 4.5.7 6.6-2.5-2.1-5.8-3.4-9.3-3.4h-.5c-3.7 0-7.1 1.4-9.6 3.7v-56h-65.5v.1h-36.2c-17.6 0-31.8 14.3-31.8 31.8v17.3c0 1.5.1 3 .3 4.5l-1.7-.2-18.9-53.5h-44v25.3l3.7.2-10 27.8-6.9.8-2.3-.3v-26.7l6.5-.7v-26.6h-39.4l-6.2 14.1-6.2-14.1h-39.4v26.6l6.5.7v26.7l-6.5.9v26.2h47.3v.1z"/><path d="M257.3 395.4h-28.9v14.5l6.5.7v37.8l-6.5.9v14.4h27.7v-14.6l-6.5-.8v-35l12.8 27.7h10.5l12.8-27.8v35.1l-6.5.8v14.6h27.7v-14.4l-6.5-.9v-37.8l6.5-.7v-14.6H278l-10.4 23.5-10.3-23.4zm564.8 53.9v14.5H850v-14.7l-6.6-.8v-11.5h23.2v11.6l-6.5.9v14.5H888v-14.7l-6.6-.8v-37.6l6.5-.9v-14.5h-27.8V410l6.5.7v11.2h-23.2v-11.2l6.6-.9v-14.5h-27.9V410l6.6.7v37.7l-6.6.9zm-23-37.7l1.4 9.1h14.8v-25.3h-34.4c-14.2 0-25.6 11.4-25.6 25.5v17.2c0 14.2 11.4 25.6 25.6 25.6h34.4v-25.4h-14.8l-1.4 9.2h-18.2c-5.2 0-9.4-4.2-9.4-9.4v-17.2c0-5.2 4.2-9.3 9.4-9.3h18.2zm-94.4 52.1v-14.8l-4.9-.5 1.6-4.4h22.9l1.5 4.3-5 .6v14.8h27.7v-14.8l-5.5-.6-18.8-53H691v13.1l6.2.4-14.2 39.4-5.9.7v14.8h27.6zm2-34.4L713 412l6.1 17.3h-12.4zm-69.1-34c-14.1 0-25.5 11.4-25.5 25.6v17.3c0 14 11.4 25.5 25.5 25.5h6.9c14.1 0 25.6-11.5 25.6-25.5v-17.3c0-14.2-11.5-25.6-25.6-25.6h-6.9zm16.2 42.9c0 5.1-4.1 9.3-9.3 9.3h-6.9c-5.1 0-9.3-4.2-9.3-9.3v-17.3c0-5.2 4.2-9.4 9.3-9.4h6.9c5.2 0 9.3 4.2 9.3 9.4v17.3zm-64.7-26.6l1.4 9.1h14.8v-25.3h-34.4c-14.2 0-25.6 11.4-25.6 25.5v17.2c0 14.2 11.4 25.6 25.6 25.6h34.4v-25.4h-14.8l-1.4 9.2h-18.2c-5.2 0-9.4-4.2-9.4-9.4v-17.2c0-5.2 4.2-9.3 9.4-9.3h18.2zm-59.3 52.1c-4.5 0-8.1-3.6-8.1-8.1 0-4.4 3.6-8 8.1-8h.5c4.5 0 8.1 3.6 8.1 8 0 4.5-3.6 8.1-8.1 8.1h-.5zm-15.9 0v-25.4h-14.8l-1.6 10.7h-15.3v-12.2h11.1v-14.9h-11.1v-11.7h15.3l1.6 10.7h14.8v-25.5H461v14.8l6.6.7v37.7l-6.6.9V464h52.9v-.3zm-61-38.3h-29.4v14.8h14.7v7.3h-19.7c-5.1 0-9.3-4.2-9.3-9.3v-17.3c0-5.1 4.2-9.3 9.3-9.3h18.3l1.4 9.1H453v-25.3h-34.4c-14.1 0-25.5 11.4-25.5 25.5v17.3c0 14.1 11.4 25.5 25.5 25.5h34.5v-38.3h-.2zm-110.5 38.3v-14.8l-4.9-.5 1.6-4.4H362l1.5 4.3-5 .6v14.8h27.6v-14.8l-5.5-.6-18.8-53h-33.3v13.1l6.2.4-14.2 39.4-5.9.7v14.8h27.8zm1.9-34.4l6.3-17.3 6.1 17.3h-12.4z"/></g><path opacity=".5" d="M167.3 512c39.8 0 72.2-9 72.2-19.9 0-11-32.4-19.9-72.2-19.9s-72.2 9-72.2 19.9 32.4 19.9 72.2 19.9z"/><path fill="#FD9E08" d="M157 480.5c2.3.7 3.7 1.7 3.7 3.1 0 4.1-11.5 9.5-25.6 12.2-14.2 2.6-25.6 1.5-25.6-2.6v-.4c-2.3-.7-3.7-1.7-3.7-3.1 0-4.1 11.5-9.5 25.6-12.2 14.2-2.6 25.6-1.5 25.6 2.6v.4z"/><path fill="#F6740D" d="M158.3 481c1.5.7 2.3 1.5 2.3 2.6 0 4.1-11.5 9.5-25.6 12.2-10.3 1.9-19.2 1.8-23.3.1h-.1c-.1 0-.1-.1-.2-.1h-.1s-.1 0-.1-.1c0 0-.1 0-.1-.1 0 0-.1 0-.1-.1h-.1s-.1 0-.1-.1c0 0-.1 0-.1-.1h-.1s-.1 0-.1-.1l-.1-.1h-.1l-.1-.1-.1-.1-.1-.1-.1-.1s0-.1-.1-.1c0 0 0-.1-.1-.1v-.1c0-.1-.1-.2-.1-.3h.3l1-1.6s-.6.3-1.4.6v-.1c-2.3-.7-3.7-1.7-3.7-3.1 0-1.1.8-2.2 2.2-3.4l1.1-.6c-3.8 5.2 1.5 4.6 6.2 3.4l-4.6 3.1 4.6-2.6 5.7-2.3c-6.9 4.2-9.5 7-.5 6.1 2.6-.2 5.3-.6 8.2-1 15.6-2.5 28.4-7.6 29.6-11.6z"/><path fill="#AC5109" d="M157 480.5c2.3.7 3.7 1.7 3.7 3.1 0 4.1-11.5 9.5-25.6 12.2-14.2 2.6-25.6 1.5-25.6-2.6v-.4c-2.3-.7-3.7-1.7-3.7-3.1 0-4.1 11.5-9.5 25.6-12.2 14.2-2.6 25.6-1.5 25.6 2.6v.4zm-45.7 10.9c6.7-3.9 13.4-6.1 21.3-6.7-7.5 1.2-14.7 4.1-21.1 7.9-1.2.7-1.8 1.2-.1 2.2 1.6 1 4.6 1.3 5.6 1.4 2.6.3 5.4.2 8 .1 3.3-.2 6.6-.7 9.9-1.3 6-1.1 12.4-2.9 17.9-5.5 1.8-.9 3.8-1.9 5.3-3.2.7-.6 1.7-1.6 1.7-2.6 0-1.3-2.1-2-3-2.3l-.7-.2.1-.7v-.2c0-2.1-5.3-2.8-6.7-3-2.6-.3-5.4-.2-8-.1-3.3.2-6.6.7-9.9 1.3-6 1.1-12.4 2.9-17.9 5.5-1.8.9-3.8 1.9-5.3 3.2-.7.6-1.7 1.6-1.7 2.6 0 .7.7 1.3 1.4 1.7 1.5.8 1.7.8 3.2-.1z"/><path fill="#FFCF84" d="M132.6 485.5c-4.8.5-12.3 2.6-15.7 6.2 4.1-2.2 10.3-4.4 15.7-6.2zM138.4 478.7c-6.5-.6-25.3 5.1-29 8.8 6.5-3.4 22.8-7.8 29-8.8z"/><path fill="#FD9E08" d="M178.3 480.5c-2.3.7-3.7 1.7-3.7 3.1 0 4.1 11.5 9.5 25.6 12.2 14.2 2.6 25.6 1.5 25.6-2.6v-.4c2.3-.7 3.7-1.7 3.7-3.1 0-4.1-11.5-9.5-25.6-12.2-14.2-2.6-25.6-1.5-25.6 2.6v.4z"/><path fill="#F6740D" d="M177 481c-1.5.7-2.3 1.5-2.3 2.6 0 4.1 11.5 9.5 25.6 12.2 10.3 1.9 19.2 1.8 23.3.1h.1c.1 0 .1-.1.2-.1h.1s.1 0 .1-.1c0 0 .1 0 .1-.1 0 0 .1 0 .1-.1h.1s.1 0 .1-.1c0 0 .1 0 .1-.1h.1s.1 0 .1-.1l.1-.1h.1l.1-.1.1-.1.1-.1.1-.1s0-.1.1-.1c0 0 0-.1.1-.1v-.1c0-.1.1-.2.1-.3h-.3l-1-1.6s.6.3 1.4.6v-.1c2.3-.7 3.7-1.7 3.7-3.1 0-1.1-.8-2.2-2.2-3.4l-1.2-.6c3.8 5.2-1.5 4.6-6.2 3.4l4.6 3.1-4.6-2.6-5.7-2.3c6.9 4.2 9.5 7 .5 6.1-2.6-.2-5.3-.6-8.2-1-15.5-2.5-28.4-7.6-29.5-11.6z"/><path fill="#AC5109" d="M178.3 480.5c-2.3.7-3.7 1.7-3.7 3.1 0 4.1 11.5 9.5 25.6 12.2 14.2 2.6 25.6 1.5 25.6-2.6v-.4c2.3-.7 3.7-1.7 3.7-3.1 0-4.1-11.5-9.5-25.6-12.2-14.2-2.6-25.6-1.5-25.6 2.6v.4zm45.7 10.9c-6.7-3.9-13.4-6.1-21.3-6.7 7.5 1.2 14.7 4.1 21.1 7.9 1.2.7 1.8 1.2.1 2.2-1.6 1-4.6 1.3-5.6 1.4-2.6.3-5.4.2-8 .1-3.3-.2-6.6-.7-9.9-1.3-6-1.1-12.4-2.9-17.9-5.5-1.8-.9-3.8-1.9-5.3-3.2-.7-.6-1.7-1.6-1.7-2.6 0-1.3 2.1-2 3-2.3l.7-.2-.1-.7v-.2c0-2.1 5.3-2.8 6.7-3 2.6-.3 5.4-.2 8-.1 3.3.2 6.6.7 9.9 1.3 6 1.1 12.4 2.9 17.9 5.5 1.8.9 3.8 1.9 5.3 3.2.7.6 1.7 1.6 1.7 2.6 0 .7-.7 1.3-1.4 1.7-1.6.8-1.7.8-3.2-.1z"/><path fill="#FFCF84" d="M202.6 485.5c4.8.5 12.3 2.6 15.7 6.2-4-2.2-10.2-4.4-15.7-6.2zM196.9 478.7c6.5-.6 25.3 5.1 29 8.8-6.5-3.4-22.9-7.8-29-8.8z"/><path fill="#AC5109" d="M215.4 446.1l11.7-1.5-.8 2.5c-1.3 4.5-2.1 8.7-.3 13.2.5 1.3 1.2 2.5 1.8 3.8.8 1.5 1.6 3 2.3 4.5 1.3 2.8 2 6.2.8 9.2-.9 2.3-2.9 4.1-5.4 4.4-2.1.3-4.3-.5-5.8-2-1.9-2-2.7-4.8-2.8-7.5l-1.5-26.6zm2.4 2l1.5 24.4c.1 2.1.7 4.5 2.2 6 1 1 2.4 1.6 3.8 1.4 1.7-.2 3-1.5 3.6-3 .9-2.4.3-5.1-.8-7.4-.7-1.5-1.5-2.9-2.2-4.4-.7-1.3-1.4-2.6-1.9-4-1.8-4.7-1.3-9.1 0-13.8l-6.2.8z"/><path fill="#F60" d="M216 446.6l10.3-1.3-.5 1.7c-1.4 4.6-2.1 9-.3 13.5.5 1.3 1.2 2.6 1.8 3.8.8 1.5 1.6 3 2.3 4.5 1.2 2.7 1.9 5.9.8 8.7-.8 2.1-2.6 3.7-4.9 4.1-2 .3-3.9-.5-5.3-1.9-1.8-1.9-2.5-4.6-2.7-7.1l-1.5-26zm1.2 1l1.5 24.9c.8 13 15.5 8.7 9.9-3.2-3.6-7.7-7.5-10.7-3.9-22.7l-7.5 1z"/><path d="M215.5 427c5 0 10.8 5.1 13 11.4s-.1 11.4-5.1 11.4-10.8-5.1-13-11.4c-2.2-6.3.1-11.4 5.1-11.4z"/><circle fill="#5A1614" cx="222.7" cy="438.4" r="2.6"/><path fill="#5A1614" d="M232 447.1c-.2-1.4-.8-2.7-1.6-3.9l-1.3-3.3-4.4-4.1-5.2 4.3c-1.3 1.1-2 2.6-2.1 4.3-.1 2.3.8 4.6 2.2 6.4 2 2.4 4 4.9 6 7.3 1.6 2 3.3 4 4.9 6l.3.4 6.4-3.4.3-.4-5.5-13.6z"/><path fill="#9A0000" d="M219.8 440.5c-1.1.9-1.8 2.3-1.9 3.9-.1 1.9.6 4.1 2.1 6 2 2.5 4 4.9 6 7.3 1.9 2.4 3 3.7 4.9 6l5.3-2.8-5.7-7c-2-2.4-4-4.9-6-7.3-1.4-1.7-2.3-3.9-2.2-6.2v-.7l.1-.2c.2-.4.4-.8.7-1.2-.7-.4-1.6-.4-2.3.2-.8.6-1 1.8-.4 2.6l-.6-.6zm7 9.4l2.1 2.5-4.6 2.6-1.9-2.4 4.4-2.7z"/><path fill="#5A1614" d="M235.9 448.1c1-1.3 1.4-2.9 1.2-4.5-.1-1.9-.9-3.7-2.1-5.2-1.2-1.5-2.8-2.7-4.6-3.3-1.8-.6-3.6-.6-5.3.3-1.7 1-2.7 2.8-2.8 4.8-.1 2.3.8 4.6 2.2 6.4 2 2.4 4 4.9 6 7.3 1.9 2.3 3.8 4.7 5.8 7l.3.4.5-.3.1-.1c.7-1 1.4-2 2-2.9s1.2-1.7 1.8-2.6l.2-.3-.3-.3c-1.7-2.1-3.4-4.2-5.1-6.4l.1-.3z"/><path fill="#F00" d="M225.5 436c-1.5.8-2.4 2.4-2.5 4.3s.6 4.1 2.1 6c2 2.5 4 4.9 6 7.3 1.9 2.4 3.9 4.7 5.8 7 .7-1 1.4-2 2-2.9s1.2-1.8 1.8-2.6c-1.7-2.1-3.4-4.2-5.1-6.4l-.5-.6c1.1-1.1 1.5-2.8 1.4-4.4s-.8-3.3-2-4.9c-1.2-1.5-2.7-2.6-4.3-3.1-1.6-.6-3.2-.6-4.7.3zm1.3 1.6c1-.7 2.3-.7 3.5-.3s2.4 1.2 3.3 2.3c.9 1.1 1.4 2.5 1.5 3.7s-.3 2.4-1.1 3.3c-.9.8-2.1 1.2-3.4.9-1.4-.2-2.8-1.1-3.8-2.4s-1.6-2.9-1.5-4.3c-.2-1.4.4-2.6 1.5-3.2zm.6.7c.9-.6 1.9-.6 3-.3 1 .3 2 1 2.8 2s1.2 2.1 1.2 3.1c.1 1.1-.2 2-1 2.7-.7.7-1.8.9-2.9.7-1.1-.2-2.3-.9-3.2-2s-1.3-2.4-1.3-3.5.5-2.1 1.4-2.7z"/><path fill="#010101" d="M139.2 387.3c3-3.1 6.3-5.8 9.9-7.8 5.5-3.1 11.9-4.7 18.4-4.9 6.5.2 13 1.8 18.5 4.9 3.2 1.8 6.2 4.1 8.9 6.7 8.9 2.7 20.5 8.7 31.9 17 1.1.8 2.1 1.6 3.2 2.3 5.8 4 7.5 11.1.7 19.8-1.3 1.7-2.7 3.3-4.1 5-4.6 5.3-4.6 3.8-1.6 9.8 1.7 3.3 2.2 6.1 1.5 8.2-1.2 3.3-5.5 4.1-11.7 2.8-3.8 20-19.6 36.3-47.2 36.6-35.1-.4-51-26.5-47.7-53.4-7.8-.7-17-7.7-16.5-16 .7-13.2 29-33.4 35.3-31.2.2 0 .4.1.5.2z"/><path fill="#FFF" d="M190 480.2l-.6.3c-.3.1-.5.2-.8.3-.2.1-.5.2-.7.3l-.9.3c-.2.1-.4.1-.6.2-.3.1-.6.2-1 .3-.2.1-.4.1-.6.2-.4.1-.7.2-1.1.3-.2 0-.3.1-.5.1-.4.1-.8.2-1.1.3-.1 0-.3.1-.4.1-.4.1-.8.2-1.3.3-.1 0-.2.1-.3.1-.5.1-.9.2-1.4.3l-.3.1-1.5.3h-.2c-.5.1-1.1.2-1.6.2h-.2c-.6.1-1.1.1-1.7.2h-.1c-.6.1-1.2.1-1.8.1h-.1c-.6 0-1.2.1-1.8.1h-4c-.6 0-1.2-.1-1.8-.1h-.1c-.6 0-1.2-.1-1.8-.1h-.1c-.6-.1-1.1-.1-1.7-.2h-.2c-.5-.1-1.1-.1-1.6-.2h-.2l-1.5-.3-.3-.1c-.5-.1-.9-.2-1.4-.3l-.3-.1c-.4-.1-.9-.2-1.3-.3-.1 0-.3-.1-.4-.1l-1.2-.3c-.2 0-.3-.1-.5-.1-.4-.1-.7-.2-1.1-.3-.2-.1-.4-.1-.5-.2-.3-.1-.7-.2-1-.3-.2-.1-.4-.1-.6-.2l-.9-.3-.6-.3c-.3-.1-.6-.2-.9-.4l-.6-.3c-3.2-2-6.2-4.6-8.7-7.7-11.4-14-11.6-31.8-5.5-48 2-5.2 3-10.7 4.8-15.9 3.2-9 9-17.9 17.4-23 4.3-2.6 9.4-4 14.5-4.2 5.1.2 10.1 1.5 14.5 4.2 8.4 5.1 14.2 14 17.4 23 1.8 5.2 2.8 10.7 4.8 15.9 6.1 16.2 5.9 34-5.5 48-2.3 3.3-5.3 5.8-8.5 7.8z"/><path opacity=".15" d="M145.2 480.2c-3.2-2-6.2-4.6-8.7-7.7-11.4-14-11.6-31.8-5.5-48 2-5.2 3-10.7 4.8-15.9 3.2-9 9-17.9 17.4-23 4.3-2.6 9.4-4 14.5-4.2 5.1.2 10.1 1.5 14.5 4.2 4.5 2.7 8.2 6.6 11.2 10.9-9.7 4.2-20.3 5.6-30.9 5.1-9-.4-9.9-2.8-15 4.8-3.5 5.2-6.3 10.7-8.4 16.3l10.1-1.9 20.4.7 12.5-9.6c1.9 24.8-15.8 32.3-38.6 21.8l-8.1 3.3c-1.7 11.9 0 20.9 5.7 30.7 9.7 16.4 28.8 15.9 45.5 13.9-.3.1-.6.2-1 .3-.2.1-.4.1-.6.2-5.7 1.8-11.7 2.7-17.7 2.6-4 0-8.1-.5-12-1.3-3.5-.6-6.9-1.7-10.1-3.2z"/><path fill="#010101" d="M115.2 362.6c-1-11.6 6.3-15.2 11.1-25.5 1.8-3.8 2.7-7.9 4.4-11.7 3.9-8.8 10.7-16 18.9-20 10.7-5.3 25.3-5.3 36 0 8.2 4.1 15.1 11.2 18.9 20 1.7 3.8 2.6 7.9 4.4 11.7 4.8 10.3 12.1 13.9 11.1 25.5-3.6 39.9-101.2 39.9-104.8 0z"/><path fill="#FFF" d="M199.8 384.9c-18.4 7.9-45.3 8-63.9.2-5.3-2.2-7.5-4-11.1-8.8-8-10.7-1.7-16.4 13-18.8-15.9-8.3 1.8-49.8 22.3-33.7 10.6 8.3 5 7.3 15.5-.4 20.3-14.9 37.5 25.9 21.8 34.1 15.2 2.6 21.4 8.6 11.9 20.1-2.8 3.5-5.3 5.5-9.5 7.3z"/><path opacity=".1" d="M147 388.6c-3.9-.9-7.5-2.1-11-3.5-5.3-2.2-7.5-4-11.1-8.8-8.1-10.7-1.8-16.4 12.9-18.8-15.9-8.3 1.8-49.8 22.3-33.7 4.2 3.3 5.9 5.1 7 5.7-7.2-.2-13 1.6-18.8 4.4-4.8 2.3-8.6 4.2-10.8 8-3.2 5.5 1.2 12.4 4.4 17-26.7 6.3-9.5 21.2 5.1 29.7zm21.3-59.1c1.1-.5 2.6-2.6 7.3-6.1 11-8.1 21 .1 25.5 10.7-4.4 5.7-8.9 3.3-14.5.3-5.7-3.1-10.5-4.7-18.3-4.9z"/><path fill="#CCC" d="M161.6 381c.8 3 3.7 5.3 7.1 5.3 3.5 0 6.4-2.3 7.1-5.3-2 1.3-4.5 2-7.1 2s-5.1-.7-7.1-2z"/><path fill="#F6740D" d="M191.6 366.7c-7.3 6.1-13.9 12.3-22.6 12.5-8.7-.6-15.3-7.1-22.6-13.6 7.2 4 14.6 6.1 22.6 8.2 8-1.6 15.3-3.4 22.6-7.1z"/><path opacity=".15" d="M163.9 378.1c-6.3-2.2-11.7-7.4-17.5-12.5 7.2 4 14.6 6.1 22.6 8.2 3.9-.8 7.6-1.6 11.3-2.7-8.4 5.2-11.4 5.4-18.2 2.7-10.3-4-2.4.6 1.8 4.3z"/><path fill="#FD9E08" d="M179.2 363.9c4.3 1.3 8.8 1.8 13.2 2.4-7.5 4-15.1 5.8-23.4 7.5-8.3-2.1-15.9-4.3-23.4-8.7 4.4-.5 8.9-.7 13.2-1.8 10.6-2.6 9.8-2.6 20.4.6z"/><path opacity=".5" fill="#FFF" d="M165.5 363.2c1.1-.2 2.3-.4 3.5-.4 1.3 0 2.5.3 3.7.6 2.1.5 4.1 1.2 6.1 1.8 2.9.9 5.9 1.4 8.9 1.8-6 2.6-12.2 4.1-18.8 5.4h-.2c5.3-1.2 10.4-2.7 15.3-4.8-3.3-.5-6.5-1.1-9.8-2-2.2-.7-4.5-1.4-6.7-1.9-.5-.2-1.3-.4-2-.5z"/><path fill="#AC5109" d="M179.2 363.9c4.3 1.3 8.8 1.8 13.2 2.4-.3.2-.6.3-.9.4-7.3 6.1-13.9 12.3-22.6 12.5-8.7-.6-15.3-7.1-22.6-13.6-.3-.2-.6-.3-.9-.5 4.4-.5 8.9-.7 13.2-1.8 10.8-2.6 10-2.6 20.6.6zm10.4 3.8c-6.6 3-13.3 4.6-20.6 6.1-7.3-1.9-13.9-3.8-20.5-7.1 2.2 2 4.5 4 6.9 5.9 2.7 2.1 5.6 4 8.9 5.1 1.5.5 3.1.9 4.8 1 1.9 0 3.7-.4 5.4-.9 5.5-1.9 10.5-6.2 15.1-10.1zm-42.1-2.1c6.8 3.7 13.9 5.7 21.5 7.7 7.5-1.6 14.6-3.3 21.5-6.6-3.8-.6-7.7-1.1-11.4-2.2-2-.6-4.1-1.2-6.2-1.8-1.3-.3-2.6-.6-3.9-.6-1.3 0-2.6.2-3.9.4-2.1.4-4.1 1-6.2 1.5-3.7.9-7.5 1.2-11.4 1.6z"/><path fill="#999" d="M146.9 363.7c-3.5.7-3.6 1.5-.3 4.1-6.1-2.8-6.2-3.8.3-4.1z"/><path fill="#BA0000" d="M167.6 287.4c1.9 0 3.5-1 3.5-2.2 0-1.3-1.6-2.3-3.5-2.3s-3.5 1-3.5 2.2c0 1.3 1.6 2.3 3.5 2.3z"/><path fill="#9A0000" d="M134.1 324.8l-.1-.4c-.1-.8-.1-1.6-.1-2.4-.2-5.3-.1-11 .8-16.2.8-4.4 2.3-8.6 5.2-12 3.7-4.4 9-6.7 14.5-8.1 9.4-2.3 17.6-2.3 26.8.2 5.3 1.4 10.4 3.7 14 7.9 2.9 3.4 4.4 7.6 5.2 12 1 5.2 1 10.8.8 16.2 0 .8 0 1.6-.1 2.4v.4c-.7 5.3-3.8 9.7-9 5.4-14.5-11.8-34.5-11.8-49 0-5.2 4.3-8.3-.1-9-5.4z"/><path fill="#F00" d="M180.9 287c1.4.4 2.7.8 3.9 1.2.1.1.2.1.4.2 2.9 1.6 5.3 3.6 7 6.5 2.1 3.7 2.5 8.4 2.6 12.6 0 1.4 0 2.8-.1 4.2-14.8-9.1-39.3-9-54.1 0-.1-1.4-.1-2.8-.1-4.2 0-4.3.4-8.9 2.6-12.6 1.7-2.9 4.2-5 7-6.5.1-.1.2-.1.4-.2 1.3-.5 2.8-.9 4.3-1.3 9.1-2.4 17-2.3 26.1.1zm10.5 4.7c.7.8 1.3 1.7 1.8 2.6 2.2 4 2.7 8.8 2.7 13.3 0 1.7 0 3.3-.1 5 1 .7 2 1.4 2.9 2.2.6.5 1.1 1.3 1.5 2.1-.1-12.5-2.4-20.3-8.8-25.2zM135 316.8c.4-.9.9-1.6 1.5-2.1.9-.8 1.9-1.5 2.9-2.2-.1-1.7-.1-3.3-.1-5 0-4.5.5-9.3 2.7-13.3.5-.9 1.2-1.8 1.8-2.6-6.4 5-8.7 12.8-8.8 25.2z"/><path opacity=".2" d="M135 316.8c.1-17.8 4.9-26.1 19.8-29.9-9.7 11.3-3.2 16.1 7 18.4-9.7.9-19 4-25.3 9.4-.6.5-1.1 1.3-1.5 2.1zm51.8-8.7z"/><path opacity=".5" fill="#FFF" d="M180.9 287c1.4.4 2.7.8 3.9 1.2.1.1.2.1.4.2 2.9 1.6 5.3 3.6 7 6.5l.9 1.8c-3.2-4.3-8-7.2-15-9-7.3-1.9-13.9-2.4-20.8-1.5 8.1-1.6 15.4-1.4 23.6.8zm10.5 4.7c.7.8 1.3 1.7 1.9 2.6 1.2 2 1.8 4.3 2.2 6.6 1.6 3.6 2.4 8 2.8 13.4.2.1.3.3.5.4.6.5 1.1 1.3 1.5 2.1-.2-12.4-2.5-20.2-8.9-25.1z"/><path fill="#5A1614" d="M198.7 316.7c-15.2-13-47-12.9-62.2 0-5.2 4.4-2.4 22.9 6.6 15.5 14.5-11.8 34.5-11.8 49 0 9 7.4 11.8-11.1 6.6-15.5z"/><path fill="#BA0000" d="M198.7 314.7c-15.2-13-47-12.9-62.2 0-5.2 4.4-2.4 22.9 6.6 15.6 14.5-11.8 34.5-11.8 49 0 9 7.3 11.8-11.2 6.6-15.6z"/><path opacity=".1" d="M173.4 305.3c-13.6-1.2-28 1.9-36.8 9.5-1.6 1.4-2.4 4.1-2.6 7 4.6-13.1 28-16.5 39.4-16.5z"/><path opacity=".25" fill="#FFF" d="M198.7 314.7c-5.3-4.5-12.6-7.4-20.5-8.8 4.9 2.3 10.8 3.8 14.4 7.9 1.2 1.3 1.8 2.6 1.9 4.4.1 3.4-1.7 7.2-5.7 6.2-15.7-6.3-25.5-5.9-38.3 1.1 13.4-6.7 29.5-5.2 41.6 4.8 9 7.3 11.8-11.2 6.6-15.6zM146.2 328z"/><path fill="#4C4C4C" d="M162.643 396.254l-7.753.855-1.117-10.14 7.753-.854z"/><path fill="#999" d="M161.423 395.286l-5.467.602-.864-7.853 5.467-.602z"/><path fill="#4C4C4C" d="M171.9 390.4l3.3 2c.9.6 1.2 1.8.7 2.7l-3.4 5.6c-.6.9-1.8 1.2-2.7.7l-3.3-2c-.9-.6-1.2-1.8-.7-2.7l3.4-5.6c.6-.9 1.8-1.2 2.7-.7z"/><path fill="#999" d="M171.3 391.4l3.3 2c.4.2.5.7.3 1.1l-3.4 5.6c-.2.4-.7.5-1.1.3l-3.3-2c-.4-.2-.5-.7-.3-1.1l3.4-5.6c.2-.4.8-.5 1.1-.3z"/><path fill="#E5E5E5" d="M171.3 391.4l3.3 2c.4.2.5.7.3 1.1l-3.4 5.6c-.2.3-.6.5-1 .4l.2-.2 3.4-5.6c.2-.4.1-.9-.3-1.1l-3.3-2c-.1 0-.1-.1-.2-.1.3-.3.7-.3 1-.1z"/><circle fill="#4C4C4C" cx="160.7" cy="413.6" r="21.4"/><path fill="#B2B2B2" d="M158.5 393.5c11.1-1.2 21.1 6.8 22.3 17.9s-6.8 21.1-17.9 22.3c-11.1 1.2-21.1-6.8-22.3-17.9-1.2-11.1 6.8-21.1 17.9-22.3z"/><path fill="#999" d="M158.5 393.5c6.1-.7 11.8 1.4 16 5.3-3.9-2.9-8.9-4.3-14.1-3.8-11.1 1.2-19.1 11.2-17.9 22.3l22.9-5.7c6.3 9.6-3.7 13.8-10.6 17.4-1.2.6-1.5.6.4 1.7 3.7 2 12.3 1.1 20.1-3.1-3.2 3.3-7.5 5.5-12.3 6.1-5.2.6-10.2-.9-14.2-3.8-.1-.1-.2-.1-.3-.2h-.1c-.1-.1-.2-.2-.3-.2l-.1-.1c-.1-.1-.2-.2-.3-.2l-.3-.3c-.2-.2-.4-.4-.7-.6l-.3-.3-.3-.3c-.4-.4-.8-.9-1.2-1.4-.4-.5-.7-1-1.1-1.5-1.7-2.6-2.8-5.6-3.2-8.8-1.2-11.3 6.8-21.3 17.9-22.5z"/><path fill="#4C4C4C" d="M159 395.6c10-1.1 18.9 6.1 20 16.1s-6.1 18.9-16.1 20c-3.1.3-6-.1-8.7-1.2 2 .4 4.2.5 6.4.3 10.5-1.2 18.2-9.7 17.2-19s-10.4-16-20.9-14.8c-2.2.2-4.3.8-6.2 1.6 2.4-1.6 5.2-2.7 8.3-3z"/><path fill="#E5E5E5" d="M157.4 399.2c0-1 1.9-1.7 4.3-1.4 2.4.2 4.4 1.3 4.4 2.3s-1.9 1.7-4.3 1.4c-2.4-.2-4.4-1.3-4.4-2.3z"/><path fill="#010101" d="M118.9 435.3c2.1-.3 4.2-.7 6.3-1.1 25.7-4.9 43.6-14.8 40.2-22.1-3.2-6.8-24.1-9-47.8-5.3-1.6.3-8.4 1.4-10.1 1.7-9.3 12.8-7.2 29.4 11.4 26.8z"/><ellipse transform="rotate(85 150.043 351.822)" fill="#00AEEF" cx="150" cy="351.8" rx="7.3" ry="5.5"/><ellipse transform="rotate(84.997 150.044 351.823)" cx="150" cy="351.8" rx="4.1" ry="3.1"/><ellipse transform="rotate(85 151.903 347.793)" fill="#FFF" cx="151.9" cy="347.8" rx="2.8" ry="2.1"/><ellipse transform="rotate(95 184.6 351.886)" fill="#00AEEF" cx="184.6" cy="351.9" rx="7.3" ry="5.5"/><ellipse transform="rotate(95.003 184.6 351.887)" cx="184.6" cy="351.9" rx="4.1" ry="3.1"/><ellipse transform="rotate(95 187.222 348.135)" fill="#FFF" cx="187.2" cy="348.1" rx="2.8" ry="2.1"/><path d="M149.1 343.7c-2.9.3-5.3 2.9-6.2 6.5 1.1-2.9 3.5-4.9 6.3-5.2 2.9-.2 5.5 1.4 7.1 4-1.5-3.4-4.3-5.5-7.2-5.3zM185.5 343.7c-2.9-.3-5.7 1.9-7.2 5.3 1.6-2.6 4.3-4.2 7.1-4 2.9.3 5.2 2.3 6.3 5.2-.9-3.6-3.3-6.2-6.2-6.5zM186.4 336.1c4 .5 7 4 8 8.7-3.5-6.6-9.2-8.3-15.6-5.3 2-2.4 4.8-3.8 7.6-3.4zM148.5 336.1c-4 .5-7 4-8 8.7 3.5-6.6 9.2-8.3 15.6-5.3-2-2.4-4.7-3.8-7.6-3.4z"/><path fill="#AC5109" d="M155.1 390.6l6.2-.7c.3 0 .7-.2 1 0s.4.5.4.9l.1.7c0 .3.1.7-.2 1s-.6.2-.9.3l-6.3.7c-.3 0-.7.2-1 0s-.4-.5-.5-.9l-.1-.6c0-.4-.1-.8.2-1.1.3-.3.7-.2 1.1-.3z"/><path fill="#F60" d="M155.1 391.2l6.2-.7c.6-.1.7-.2.8.4l.1.7c.1.6 0 .5-.6.6l-6.3.7c-.6.1-.8.3-.8-.4l-.1-.6c-.1-.8 0-.6.7-.7z"/><path fill="#AC5109" d="M158 393.3c-2.5 4.2-7.6 8.6-12.5 10-3.4 1-7 .4-9.6-2.1-1.8-1.8-2.9-4.2-2.9-6.7-.1-2.9 1-5.7 2.8-8 .7.3 1.4.6 2.2.9l-.2.3c-1.5 1.9-2.5 4.3-2.5 6.8.1 1.9.8 3.8 2.2 5.1 2 1.9 4.8 2.3 7.4 1.5 4.2-1.2 8.9-5.3 11.1-8.9l.1-.1.6-1 2 1.2-.7 1z"/><path fill="#F60" d="M157.5 393c-2.5 4-7.5 8.4-12.2 9.8-3.2.9-6.6.4-9.1-1.9-1.7-1.7-2.7-3.9-2.8-6.3-.1-2.8 1-5.6 2.7-7.8.4.2.7.3 1.1.5l-.1.1c-1.6 2-2.7 4.5-2.6 7.2.1 2.1.9 4.1 2.4 5.5 2.2 2.1 5.1 2.5 8 1.7 4.4-1.3 9.2-5.4 11.5-9.2l.1-.1.3-.5 1 .6-.3.4z"/><path fill="#AC5109" d="M198.9 387.9c-1 5.3-3.2 10.7-7 14.6-3 3.1-7 5.2-11.4 5.4-4.1.2-8-1.1-11.3-3.5-3.9-2.8-8.7-7.3-10.5-11.7l-.5-1.2 2.4-1 .5 1.2.1.2c1.6 3.9 6.1 7.9 9.5 10.4 2.8 2 6.2 3.2 9.7 3 3.7-.2 7.1-1.9 9.7-4.6 3.4-3.5 5.3-8.2 6.2-12.9 1-.4 1.9-.7 2.8-1.1l-.2 1.2z"/><path fill="#F60" d="M198.3 387.8c-1 5.2-3.1 10.5-6.8 14.3-2.9 3-6.7 5-11 5.2-4 .2-7.8-1.1-10.9-3.4-3.8-2.7-8.5-7.1-10.3-11.4l-.3-.7 1.3-.5.3.7.1.2c1.7 4 6.2 8.1 9.7 10.6 2.9 2.1 6.4 3.3 10 3.1 3.9-.2 7.3-2 10-4.8 3.5-3.6 5.4-8.5 6.4-13.3v-.2c.5-.2 1.1-.4 1.6-.6l-.1.8z"/><path fill="#AC5109" d="M156.9 390.4l3-.3c.4 0 1.1-.3 1.4.2.3.5-.3.9-.6 1.2l-.7.6c-1.1.9-1.2 1.2-2.5.4l-.9-.5c-.4-.2-.9-.4-.8-1 .1-.5.7-.5 1.1-.6z"/><path fill="#F60" d="M156.9 391l3-.3c.9-.1 1.2-.3.3.4l-.7.6c-.9.8-.8.9-1.8.3l-.9-.5c-.6-.4-.7-.4.1-.5z"/><path fill="#4C4C4C" d="M152.2 383.5l10.2-1.1c1.1-.1 2.1.7 2.2 1.8l.4 4c.1 1.1-.7 2.1-1.8 2.2l-10.1 1c-1.1.1-2.1-.7-2.2-1.8l-.4-4c-.2-1 .6-2 1.7-2.1z"/><path fill="#999" d="M152.3 384.6l10.2-1.1c.5-.1.9.3.9.8l.4 4c.1.5-.3.9-.8.9l-10.2 1.1c-.5.1-.9-.3-.9-.8l-.4-4c0-.4.4-.8.8-.9z"/><path fill="#B2B2B2" d="M152.3 384.6l.6-.1.6 5.7-.6.1c-.2 0-.4 0-.6-.2l-.6-5.3c.2-.1.4-.2.6-.2zm1.7-.2l1.1-.1.6 5.7-1.1.1-.6-5.7zm2.3-.2l1.1-.1.6 5.7-1.1.1-.6-5.7zm2.3-.3l1.1-.1.6 5.7-1.1.1-.6-5.7zm2.3-.2l1.1-.1.6 5.7-1.1.1-.6-5.7z"/><path fill="#4C4C4C" d="M152.3 384.2l1.1-.1.7 6.5-1.1.1-.7-6.5zm9.1-1l1.1-.1.7 6.5-1.1.1-.7-6.5zm-2.3.2l1.1-.1.7 6.5-1.1.1-.7-6.5zm-2.3.3l1.1-.1.7 6.5-1.1.1-.7-6.5zm-2.3.2l1.1-.1.7 6.5-1.1.1-.7-6.5z"/><path opacity=".8" fill="#FFF" d="M227.2 447.9l9.7 11.8.8-1.4L229 448c-.6 0-1.2-.4-1.6-.8 0 .2-.1.4-.2.7zm1.3-3.1c-2-3.2-1.5-6.2 2.2-5.9-4-2-5.7 3-2.2 5.9zm-4.3-7.2c1.6-1.8 2.9-2.3 5.3-1.8-2.6 0-3.5.4-4.8 2.7l-.5-.9z"/><path fill="#9A0000" d="M198.7 314.7c-15.2-13-47-12.9-62.2 0-5.2 4.4-2.4 22.9 6.6 15.6 14.5-11.8 34.5-11.8 49 0 9 7.3 11.8-11.2 6.6-15.6zm-.4.6c1.9 1.7 2.4 5.4 2.3 7.8-.1 2.5-.9 7-3.6 8-1.6.6-3.3-.4-4.5-1.4-14.7-12.1-35.1-12.1-49.9 0-1.2 1-2.9 2-4.5 1.4-2.6-1-3.5-5.6-3.6-8s.4-6.1 2.3-7.8c15.1-12.8 46.5-12.8 61.5 0z"/><path fill="#FFF" d="M146.6 296.6c-.7.2-1.3.5-2 .7v1.6c.1 0 .3 0 .4-.1v4c-.2.1-.3.1-.4.2v1.5c.6-.2 1.3-.3 1.9-.5v-1.6h-.5v-1.9-1.9c.1.5.3.9.4 1.4.1.5.3.9.5 1.4.2-.1.5-.1.7-.2.1-.5.3-1.1.4-1.6.1-.6.3-1.1.5-1.7v4c-.2.1-.3.1-.5.2v1.6c.6-.1 1.3-.3 1.9-.4v-1.6h-.5v-2.1-2.1c.1-.1.3-.1.5-.2v-1.6c-.7.2-1.4.4-2 .6-.1.5-.2.9-.4 1.4-.1.5-.2.9-.4 1.4-.1-.4-.2-.8-.4-1.2.1-.5 0-.9-.1-1.3zm39.5 5.2v1.6c.7.2 1.3.3 2 .5v-1.6c-.2-.1-.3-.1-.5-.2v-1.2c.5.2 1.1.3 1.6.5v1.2h-.5v1.6c.7.2 1.3.4 2 .6v-1.6c-.2-.1-.3-.1-.5-.2v-2-2h.5v-1.5c-.7-.2-1.3-.4-1.9-.6v1.6c.1.1.3.1.5.2v1.2c-.5-.2-1.1-.3-1.6-.5v-1.2h.5v-1.6c-.7-.2-1.3-.4-2-.6v1.6c.2.1.3.1.5.2v4h-.6zm-1.6-4.6c0 .3.1.7.1 1 .3.1.7.2 1 .3v-1.4-1.4l-2.4-.6c-.5-.1-1 .1-1.3.5s-.5 1.1-.5 1.9v2c0 .8.2 1.5.5 2.1s.8 1 1.3 1.1c.8.2 1.6.3 2.4.5v-1.4-1.4c-.3-.1-.7-.2-1-.3 0 .3-.1.7-.1 1-.4-.1-.8-.2-1.3-.3-.4-.1-.7-.6-.7-1.2v-1-1c0-.6.3-1 .7-.9.4.3.9.4 1.3.5zm-6.6 4.6v-1.7c-.1 0-.2-.1-.3-.1 0-.2.1-.3.1-.5.5.1 1.1.1 1.6.2 0 .2.1.3.1.5h-.3v1.7c.6.1 1.3.2 1.9.3v-1.6c-.1 0-.3-.1-.4-.1-.2-1-.4-2.1-.7-3.1-.2-1-.4-2.1-.7-3.1-.8-.1-1.6-.3-2.3-.4v1.5c.1 0 .3.1.4.1-.2.7-.3 1.4-.5 2.2-.2.7-.3 1.4-.5 2.2h-.4v1.7c.7 0 1.3.1 2 .2zm.1-3.9c.1-.3.1-.6.2-.9.1-.3.1-.6.2-.9.1.3.1.7.2 1 .1.3.1.7.2 1-.2-.1-.5-.2-.8-.2zm-4.8-4.5c-.5 0-.9.3-1.3.8-.3.5-.5 1.2-.5 2.1v2c0 .8.2 1.6.5 2.1.3.6.8.9 1.3.9h.5c.5 0 .9-.2 1.3-.8.3-.5.5-1.2.5-2v-1-1c0-.8-.2-1.6-.5-2.1-.3-.6-.8-1-1.3-1h-.5zm1.1 5.1c0 .6-.3 1-.7 1h-.5c-.4 0-.7-.5-.7-1.1v-1-1c0-.6.3-1.1.7-1h.5c.4 0 .7.6.7 1.1v2zm-4.5-3.4c0 .4.1.7.1 1.1h1v-1.5-1.5c-.8-.1-1.6-.1-2.4-.1-.5 0-1 .3-1.3.9-.3.5-.5 1.3-.5 2.1v2c0 .8.2 1.6.5 2.1s.8.9 1.3.9h2.4v-1.5-1.5h-1c0 .4-.1.7-.1 1.1h-1.3c-.4 0-.7-.5-.7-1.1v-1-1c0-.6.3-1.1.7-1.1.4.1.9.1 1.3.1zm-4 6.1c-.3 0-.6-.4-.6-.9s.3-1 .6-1 .6.4.6.9c0 .6-.3 1-.6 1zm-1.3.1v-1.5-1.5c-.3 0-.7 0-1 .1 0 .4-.1.8-.1 1.3-.4 0-.7 0-1.1.1v-1.4c.3 0 .5 0 .8-.1v-1.8c-.3 0-.5 0-.8.1v-1.4c.4 0 .7 0 1.1-.1 0 .4.1.8.1 1.3.3 0 .7 0 1-.1v-1.5-1.5c-1.2.1-2.5.2-3.7.3v1.7h.5v4.4c-.2 0-.3.1-.5.1v1.7c1.3-.1 2.5-.2 3.7-.2zm-4.2-4.2c-.7.1-1.4.2-2.1.2v1.7c.3 0 .7-.1 1-.1v.9c-.5.1-.9.1-1.4.2-.4 0-.7-.4-.7-1v-1-1c0-.6.3-1.1.7-1.2.1 0 .2 0 .4-.1.3 0 .6-.1.9-.1 0 .4.1.7.1 1.1.3 0 .7-.1 1-.1v-1.5-1.5l-2.1.3c-.1 0-.2 0-.4.1-.5.1-.9.5-1.3 1.1-.3.6-.5 1.4-.5 2.2v2c0 .8.2 1.5.5 2s.8.8 1.3.7l2.4-.3v-2.3c.2-.8.2-1.6.2-2.3zm-7.8 5.6V301h-.3c0-.2.1-.4.1-.5.5-.1 1.1-.2 1.6-.3 0 .2.1.3.1.5-.1 0-.2.1-.4.1v1.7c.6-.1 1.3-.2 1.9-.3v-1.7h-.4c-.2-1-.4-2-.7-3-.2-1-.4-2-.7-2.9-.8.2-1.6.4-2.3.6v1.5c.1 0 .3 0 .4-.1-.2.8-.3 1.6-.5 2.4s-.3 1.6-.5 2.3c-.1.1-.3.1-.4.2v1.7c.8-.2 1.5-.3 2.1-.5zm.2-3.9c.1-.3.1-.7.2-1 .1-.3.1-.7.2-1 .1.3.1.6.2 1 .1.3.1.6.2 1-.3-.2-.5-.1-.8 0z"/><text transform="translate(786.72 508.265)"><tspan x="0" y="0" fill="#FFF" font-family="'Arial-Black'" font-size="36">BE</tspan><tspan x="54" y="0" fill="#FFF" font-family="'Arial-Black'" font-size="36" letter-spacing="-2">T</tspan><tspan x="77.6" y="0" fill="#FFF" font-family="'Arial-Black'" font-size="36">A</tspan></text></svg>
