<svg width="90.488" height="19.543" xmlns="http://www.w3.org/2000/svg">

 <g>
  <title>background</title>
  <rect fill="none" id="canvas_background" height="402" width="582" y="-1" x="-1"/>
 </g>
 <g>
  <title>Layer 1</title>
  <path id="svg_4" d="m15.97,4.01l0.223,-0.585l0.002,-0.004c0.12,-0.34 0.267,-0.68 0.378,-1.03c0.09,-0.28 0.167,-0.61 0,-0.88c-0.168,-0.27 -0.494,-0.34 -0.795,-0.36c-0.423,-0.02 -0.904,0.05 -1.323,0.11l-1.413,0.2c-1.21,-0.911 -2.705,-1.441 -4.326,-1.441s-3.116,0.53 -4.326,1.425l-1.413,-0.193c-0.42,-0.057 -0.9,-0.122 -1.323,-0.102c-0.3,0.018 -0.627,0.087 -0.796,0.36c-0.166,0.27 -0.09,0.6 0,0.88c0.112,0.35 0.257,0.69 0.38,1.035l0,0.004l0.59,1.54c-0.245,0.72 -0.378,1.5 -0.378,2.31c0,1.41 0.41,2.74 1.354,3.82c0.093,0.1 0.19,0.2 0.29,0.3l-0.005,0.02c-0.47,0.05 -0.94,-0.16 -1.22,-0.58c-0.04,-0.06 -0.06,-0.16 -0.07,-0.22c-0.03,-0.11 -0.07,-0.2 -0.13,-0.29c-0.27,-0.42 -0.83,-0.54 -1.25,-0.27c-0.48,0.31 -0.49,0.81 -0.26,1.28c0.05,0.11 0.11,0.22 0.18,0.32c0.65,1 1.84,1.45 2.94,1.19c0.04,0.13 0.09,0.25 0.14,0.36c-0.19,0.03 -0.39,0.03 -0.56,-0.01l-0.23,-0.05l-0.09,0.21c-0.18,0.44 -0.26,0.91 -0.22,1.38l0.02,0.2l1.02,1.19l-0.05,0.02l-0.42,0.15l0.28,0.32c0.03,0.04 0.07,0.08 0.1,0.12l1.031,1.161l0.03,0.03l0.025,0.03l0.03,0.03l0.03,0.03l0.03,0.03l0.03,0.03l0.03,0.03l0.033,0.03l0.034,0.03l0.03,0.03l0.033,0.03l0.035,0.023l0.037,0.03l0.035,0.03l0.034,0.03l0.034,0.025l0.037,0.03l0.036,0.03l0.04,0.03l0.032,0.022l0.04,0.03l0.034,0.026l0.04,0.022l0.04,0.027l0.04,0.027l0.04,0.025l0.04,0.024l0.04,0.03l0.04,0.02l0.04,0.02l0.06,0.03l0.13,0.07l0.05,0.03l0.17,-0.18l0.02,-0.02l0.02,-0.02l0.03,-0.02l0.02,-0.02l0.03,-0.02l0.03,-0.02l0.03,-0.02l0.03,-0.02l0.03,-0.01l0.03,-0.01l0.04,-0.01l0.04,-0.01l0.03,-0.01l0.04,-0.01l0.04,-0.01l0.04,-0.01l0.04,0l0.04,-0.01l0.04,-0.01l0.3,0l0.04,0.01l0.04,0.01l0.04,0.01l0.04,0.01l0.04,0.01l0.02,0.007l0.48,0.98l0.21,0.03l0.06,0l0.06,0.01l0.06,0l0.05,0.01l0.23,0l0.05,0.01l0.05,0.01l0.885,0l0.06,-0.007l0.11,0l0.06,-0.01l0.06,-0.008l0.06,-0.002l0.055,-0.01l0.06,-0.01l0.06,-0.01l0.06,-0.005l0.06,-0.01l0.06,-0.01l0.22,-0.03l0.47,-0.94c0.04,-0.03 0.08,-0.04 0.12,-0.06l0.05,-0.01l0.04,0l0.05,-0.01l0.04,-0.01l0.04,-0.004l0.13,0l0.04,0.01l0.061,0l0.044,0.01l0.04,0.005l0.04,0.01l0.04,0.005l0.04,0.01l0.04,0.01l0.04,0.01l0.037,0.012l0.04,0.015l0.04,0.01l0.04,0.02l0.03,0.01l0.03,0.02l0.03,0.02l0.03,0.02l0.03,0.02l0.03,0.02l0.02,0.02l0.02,0.02l0.18,0.19l0.05,-0.03l0.13,-0.07l0.06,-0.03l0.05,-0.02l0.04,-0.03l0.05,-0.02l0.04,-0.02l0.04,-0.022l0.04,-0.025l0.04,-0.02l0.04,-0.027l0.03,-0.02l0.04,-0.02l0.04,-0.024l0.03,-0.03l0.04,-0.03l0.04,-0.03l0.03,-0.03l0.04,-0.02l0.04,-0.03l0.036,-0.02l0.03,-0.03l0.03,-0.03l0.03,-0.03l0.036,-0.03l0.03,-0.03l0.03,-0.027l0.03,-0.03l0.03,-0.03l0.03,-0.03l0.03,-0.03l0.03,-0.03l0.03,-0.03l1.03,-1.14c0.04,-0.03 0.07,-0.07 0.11,-0.11l0.28,-0.32l-0.42,-0.15c-0.02,-0.01 -0.04,-0.01 -0.05,-0.02l1.02,-1.187l0.02,-0.2l0.01,-0.14c0.78,0.26 1.66,0.35 2.26,0.1c0.02,-0.01 0.04,-0.02 0.05,-0.04c0.444,-0.21 0.715,-0.64 0.83,-1.11c0.13,-0.5 0.09,-1.056 -0.08,-1.546c-0.13,-0.41 -0.36,-0.8 -0.69,-1.085c-0.3,-0.26 -0.68,-0.44 -1.08,-0.41c-0.03,0 -0.06,0 -0.09,0.01l-0.27,-0.53c0.84,-0.76 1.33,-1.84 1.33,-2.98c0,-1.22 -0.54,-2.31 -1.4,-3.04l-0.043,-0.016zm-1.203,6.996c0.055,-0.065 0.108,-0.132 0.16,-0.2l0.323,0.635c-0.058,0.036 -0.12,0.058 -0.172,0.047c-0.158,-0.032 -0.266,-0.316 -0.31,-0.48l-0.001,-0.002z" clip-rule="evenodd" fill-rule="evenodd"/>
  <path id="svg_5" d="m1.582,11.044c0.33,0.512 0.9,0.776 1.468,0.742c0.005,0.238 0.058,0.5 0.133,0.757c-0.95,0.206 -1.973,-0.18 -2.532,-1.046c-0.21,-0.333 -0.46,-0.834 -0.02,-1.12c0.26,-0.165 0.6,-0.092 0.76,0.164c0.1,0.16 0.09,0.34 0.2,0.51l-0.009,-0.007z" fill="#FFF" clip-rule="evenodd" fill-rule="evenodd"/>
  <path id="svg_6" d="m13.708,16.155l1.083,-1.244c-0.28,-0.05 -0.59,-0.04 -0.87,0.06c-0.27,0.1 -0.57,0.31 -0.57,0.63c0.01,0.24 0.17,0.43 0.36,0.57l-0.003,-0.016z" fill="#6F9426" clip-rule="evenodd" fill-rule="evenodd"/>
  <path id="svg_7" d="m13.255,17.336c-0.333,0.398 -0.662,0.74 -1.11,1.02l0.544,-0.684c0.19,-0.105 0.38,-0.213 0.56,-0.336l0.006,0zm-7.963,1.02c-0.436,-0.282 -0.748,-0.624 -1.106,-1.02c0.182,0.123 0.37,0.23 0.564,0.336l0.542,0.683l0,0.001zm0.276,0.162l-0.74,-0.93c0.35,-0.384 0.984,-0.51 1.5,-0.42l0.526,0.972l-0.01,-0.002c-0.45,-0.062 -0.954,0.043 -1.276,0.38zm0.93,-1.314c0.422,0.124 0.95,0.52 0.713,1.042c-0.065,-0.03 -0.13,-0.052 -0.2,-0.072l-0.514,-0.97l0.001,0zm3.608,1.253l-0.332,0.717c-0.7,0.09 -1.414,0.09 -2.114,0l-0.332,-0.717c0.908,0.12 1.87,0.12 2.778,0zm0.25,-0.262c-0.045,0.014 -0.09,0.032 -0.13,0.05c-0.216,-0.47 0.205,-0.868 0.628,-1.014l-0.5,0.97l0.002,-0.006zm1.51,0.322c-0.335,-0.35 -0.86,-0.45 -1.325,-0.37l-0.015,0.003l0.5,-0.968c0.53,-0.118 1.21,0 1.58,0.403l-0.74,0.932z" fill="#DCB000" clip-rule="evenodd" fill-rule="evenodd"/>
  <path id="svg_8" d="m3.74,16.155l-1.085,-1.245l0.004,0c0.28,-0.053 0.59,-0.04 0.87,0.052c0.27,0.093 0.57,0.305 0.57,0.625c-0.01,0.235 -0.17,0.43 -0.36,0.568l0.001,0z" fill="#BA0000" clip-rule="evenodd" fill-rule="evenodd"/>
  <path id="svg_9" d="m13.785,16.73c0.087,-0.08 0.168,-0.165 0.244,-0.25c-0.65,-0.228 -0.98,-0.737 -0.76,-1.18c0.21,-0.433 0.88,-0.653 1.54,-0.53c0,-0.073 0.01,-0.145 0.01,-0.218c-0.51,-0.204 -0.95,-0.476 -1.19,-0.76c-0.14,-0.158 -0.25,-0.326 -0.35,-0.503c-0.07,-0.05 -0.13,-0.09 -0.18,-0.14c-0.37,0.44 -0.77,0.82 -1.2,1.13l-0.01,0.01c-0.1,0.19 -0.21,0.39 -0.34,0.58c-0.06,0.22 -0.17,0.42 -0.34,0.61l2.55,1.24l0.026,0.011z" fill="#9C3" clip-rule="evenodd" fill-rule="evenodd"/>
  <path id="svg_10" d="m3.552,13.515c-0.237,0.045 -0.488,0.048 -0.725,0.003c-0.168,0.413 -0.232,0.836 -0.194,1.25c0.662,-0.122 1.333,0.098 1.544,0.532c0.216,0.443 -0.117,0.952 -0.76,1.178c0.1,0.114 0.21,0.225 0.33,0.33l2.536,-1.245c-0.188,-0.194 -0.323,-0.412 -0.39,-0.646c-0.03,-0.04 -0.056,-0.08 -0.082,-0.122c-0.18,0.15 -0.44,0.177 -0.69,0.15c-0.81,-0.085 -1.2,-0.63 -1.51,-1.315l-0.05,-0.115l-0.009,0z" fill="#F00" clip-rule="evenodd" fill-rule="evenodd"/>
  <path id="svg_11" d="m8.724,18.394c0.46,0.008 0.924,-0.018 1.382,-0.08c-0.234,-0.497 0.092,-1.032 0.767,-1.237c0.667,-0.203 1.455,-0.017 1.848,0.417c0.36,-0.193 0.67,-0.41 0.94,-0.644l-2.54,-1.236c-0.52,0.5 -1.39,0.83 -2.39,0.83c-0.95,0 -1.79,-0.297 -2.31,-0.758l-2.52,1.24c0.25,0.206 0.53,0.396 0.85,0.568c0.4,-0.433 1.18,-0.62 1.85,-0.417c0.68,0.205 1,0.74 0.77,1.238c0.46,0.06 0.92,0.086 1.38,0.08l-0.027,-0.001z" fill="#FC0" clip-rule="evenodd" fill-rule="evenodd"/>
  <path id="svg_12" d="m4.195,12.247c2.33,3.557 6.713,3.557 9.043,0c-1.34,0.797 -2.978,1.105 -4.52,1.105s-3.183,-0.31 -4.523,-1.105z" fill="#0095D2" clip-rule="evenodd" fill-rule="evenodd"/>
  <path id="svg_13" d="m4.194,12.246c1.124,1.716 2.725,2.605 4.344,2.666c0.1,-0.004 0.202,-0.01 0.303,-0.02c-1.36,-0.14 -2.69,-0.867 -3.71,-2.184c-0.32,-0.13 -0.63,-0.285 -0.93,-0.462l-0.007,0z" fill="#00517C" clip-rule="evenodd" fill-rule="evenodd"/>
  <path id="svg_14" d="m8.716,0.452c1.52,0 2.927,0.498 4.062,1.34l1.084,-0.1c0.482,-0.066 0.965,-0.143 1.45,-0.177c1.46,-0.102 1.036,0.41 0.55,1.79l-0.184,0.478c-0.27,-0.19 -0.562,-0.348 -0.874,-0.467c-0.084,-0.13 -0.173,-0.255 -0.265,-0.378c0.03,-0.04 0.06,-0.08 0.09,-0.117c0.44,-0.5 0.96,-0.85 1.48,-1.02c-0.92,-0.07 -1.57,0.6 -2.03,1.27l0.05,0.07c-0.25,-0.05 -0.51,-0.07 -0.77,-0.07c-2.21,0 -4.01,1.8 -4.01,4.01s1.79,4.01 4,4.01c0.26,0 0.52,-0.02 0.78,-0.07c-1.25,1.3 -3.22,1.94 -5.43,1.94c-3.78,0 -6.84,-1.86 -6.84,-5.63c0,-1.6 0.55,-3.08 1.48,-4.25c-0.43,-0.67 -1.13,-1.39 -2.05,-1.25c0.51,0.17 1.03,0.53 1.47,1.03l0.1,0.12c-0.35,0.47 -0.65,0.98 -0.88,1.53l-0.44,-1.18c-0.48,-1.36 -0.9,-1.88 0.51,-1.79c0.44,0.03 0.87,0.09 1.31,0.15c0.42,0.07 0.84,0.1 1.26,0.13c1.171,-0.871 2.571,-1.371 4.091,-1.371l0.006,0.002zm4.648,4.01c-1.43,0 -2.59,1.16 -2.59,2.59c0,1.432 1.16,2.592 2.59,2.592s2.59,-1.16 2.59,-2.59c0,-1.432 -1.16,-2.592 -2.59,-2.592z" fill="#FFF" clip-rule="evenodd" fill-rule="evenodd"/>
  <path id="svg_15" d="m6.313,12.637c-2.588,-0.65 -4.43,-2.426 -4.43,-5.353c0,-0.632 0.086,-1.244 0.247,-1.825c0.248,-0.88 0.665,-1.71 1.232,-2.42l0.003,-0.01c-0.437,-0.67 -1.137,-1.39 -2.048,-1.25c0.51,0.17 1.036,0.52 1.478,1.03c0.034,0.04 0.067,0.07 0.098,0.11c-0.35,0.47 -0.646,0.98 -0.876,1.53l-0.447,-1.149c-0.48,-1.365 -0.902,-1.882 0.51,-1.79c0.438,0.027 0.874,0.088 1.31,0.15c0.423,0.06 0.84,0.096 1.267,0.125c0.09,-0.067 0.183,-0.132 0.277,-0.194c0.65,-0.43 1.38,-0.75 2.162,-0.94c-2.433,1.11 -4.138,3.68 -4.138,6.68c0,2.66 1.347,4.43 3.355,5.32l0,-0.014z" fill="#E7E8E9" clip-rule="evenodd" fill-rule="evenodd"/>
  <path id="svg_16" d="m9.446,10.333c0.224,0.03 0.532,-0.193 0.747,-0.35c0.252,-0.182 0.22,-0.058 0.072,0.12c-0.192,0.236 -0.4,0.49 -0.712,0.54c-0.1,0.016 -0.195,0.012 -0.282,-0.002c-0.11,-0.01 -0.21,-0.05 -0.27,-0.08c-0.13,-0.07 -0.24,-0.1 -0.34,-0.1c-0.1,0 -0.2,0.04 -0.34,0.11c-0.06,0.04 -0.16,0.07 -0.27,0.09c-0.08,0.02 -0.18,0.02 -0.28,0.01c-0.31,-0.05 -0.52,-0.3 -0.71,-0.54c-0.17,-0.2 -0.15,-0.28 0.07,-0.12c0.22,0.16 0.53,0.38 0.75,0.35c0.22,-0.03 0.41,-0.07 0.53,-0.15c0.11,-0.07 0.17,-0.19 0.13,-0.38l-0.01,-0.06c-0.38,-0.37 -0.78,-0.26 -0.92,-0.49c-0.07,-0.13 -0.04,-0.25 0.05,-0.36c0.3,-0.37 1.75,-0.37 2.05,0c0.09,0.11 0.13,0.24 0.05,0.37c-0.13,0.22 -0.52,0.12 -0.88,0.46c0,0.04 -0.01,0.07 -0.01,0.1c-0.04,0.19 0.01,0.31 0.12,0.39l0,0.01c0.12,0.08 0.29,0.12 0.51,0.15l-0.055,-0.068z"/>
  <path id="svg_17" d="m15.678,9.96l0.348,0.68l-0.066,0.027c-0.235,0.108 -0.42,0.277 -0.564,0.48l-0.39,-0.763c-0.494,0.243 -1.05,0.38 -1.637,0.38c-2.05,0 -3.71,-1.662 -3.71,-3.71c0,-2.05 1.66,-3.71 3.71,-3.71c2.04,0 3.71,1.66 3.71,3.71c0,1.177 -0.55,2.225 -1.41,2.905l0.009,0.001zm-2.308,-5.79c1.593,0 2.885,1.29 2.885,2.884c0,1.593 -1.292,2.885 -2.885,2.885c-1.593,0 -2.885,-1.3 -2.885,-2.89s1.292,-2.89 2.885,-2.89l0,0.011z" fill="#F00" clip-rule="evenodd" fill-rule="evenodd"/>
  <path id="svg_18" d="m15.396,11.148l-0.39,-0.763c0.103,-0.04 0.01,0.005 0.11,-0.044l0.367,0.7l-0.087,0.12l0,-0.013zm-1.84,-0.375c-0.06,0.003 -0.123,0.005 -0.186,0.005c-2.05,0 -3.71,-1.66 -3.71,-3.71c0,-2.048 1.66,-3.71 3.71,-3.71c0.063,0 0.125,0.002 0.187,0.005c-4.903,0.288 -5.082,7.092 0,7.41l-0.001,0zm0,-6.584c1.507,0.097 2.7,1.35 2.7,2.88c0,1.53 -1.193,2.782 -2.7,2.878c0.063,0.004 0.126,0.014 0.188,0.006c3.706,-0.492 3.453,-5.473 0,-5.77c-0.062,-0.006 -0.125,0.002 -0.187,0.006l-0.001,0z" fill="#9A0000" clip-rule="evenodd" fill-rule="evenodd"/>
  <path id="svg_19" d="m17.773,12.192c0.302,0.9 0.06,1.855 -0.543,2.13c-0.602,0.277 -1.335,-0.23 -1.637,-1.13c-0.302,-0.9 -0.06,-1.854 0.543,-2.13c0.602,-0.276 1.335,0.23 1.637,1.13zm-3.448,-1.016c0.147,0.484 0.43,0.74 0.753,0.73c-0.094,0.47 -0.047,0.974 0.104,1.425c0.137,0.41 0.367,0.8 0.69,1.09l0.036,0.03c-1.254,-0.14 -2.078,-0.79 -2.424,-1.79c0.184,-0.26 0.357,-0.55 0.517,-0.85l0.26,-0.48l0.07,-0.14l-0.006,-0.015z" fill="#FFF" clip-rule="evenodd" fill-rule="evenodd"/>
  <path id="svg_20" d="m16.438,14.283c-0.353,-0.183 -0.67,-0.57 -0.845,-1.09c-0.29,-0.86 -0.08,-1.77 0.465,-2.09c-0.374,0.52 -0.47,1.378 -0.195,2.2c0.133,0.397 0.336,0.732 0.575,0.98z" fill="#D1D3D4" clip-rule="evenodd" fill-rule="evenodd"/>
  <path id="svg_21" d="m13.37,5.55c0.1,0 0.2,0.01 0.295,0.03c-0.162,0.08 -0.274,0.25 -0.274,0.443c0,0.273 0.23,0.495 0.5,0.495s0.5,-0.222 0.5,-0.495l0,-0.088c0.31,0.275 0.5,0.675 0.5,1.12c0,0.83 -0.67,1.504 -1.5,1.504s-1.5,-0.68 -1.5,-1.51s0.68,-1.51 1.51,-1.51l-0.031,0.011zm-7.342,1.146c0.716,0.192 1.218,0.784 1.33,1.47c-0.334,-0.485 -0.836,-0.86 -1.45,-1.024c-0.614,-0.164 -1.236,-0.09 -1.768,0.163c0.44,-0.54 1.172,-0.8 1.888,-0.61l0,0.001z" clip-rule="evenodd" fill-rule="evenodd"/>
  <path id="svg_22" d="m14.325,11.176c0.112,0.37 0.303,0.605 0.53,0.693c-0.172,0.03 -0.815,1.29 -0.76,1.77c-0.273,-0.27 -0.478,-0.61 -0.61,-0.99c0.183,-0.27 0.356,-0.55 0.516,-0.86l0.26,-0.49l0.07,-0.14l-0.006,0.017z" fill="#0095D2" clip-rule="evenodd" fill-rule="evenodd"/>
  <path id="svg_23" d="m9.2,15.326c0.568,0.498 1.274,0.316 1.91,-0.553c-0.614,0.308 -1.26,0.492 -1.91,0.553zm-0.966,0c-0.57,0.498 -1.275,0.316 -1.91,-0.553c0.612,0.308 1.257,0.492 1.91,0.553zm-3.067,-0.81c-0.664,-0.07 -0.936,-0.564 -1.167,-1.066c-0.313,-0.68 -0.47,-1.19 -0.51,-1.536c0.575,1.056 1.307,1.868 2.125,2.437c-0.042,0.13 -0.173,0.2 -0.448,0.17l0,-0.005z" fill="#FFF" clip-rule="evenodd" fill-rule="evenodd"/>
  <path id="svg_24" d="m4.056,13.57c-0.02,-0.04 -0.038,-0.08 -0.056,-0.12c-0.313,-0.68 -0.47,-1.19 -0.51,-1.536c0.313,0.574 0.672,1.076 1.066,1.507l-0.016,0.01c-0.15,0.07 -0.32,0.12 -0.484,0.15l0,-0.011z" fill="#0095D2" clip-rule="evenodd" fill-rule="evenodd"/>
  <path id="svg_25" d="m2.894,2.937c-0.198,0.264 -0.378,0.543 -0.54,0.834c-0.184,-0.69 -0.39,-1.35 -0.93,-1.94c0.477,0.19 0.96,0.52 1.37,0.99c0.035,0.04 0.068,0.08 0.1,0.12l0,-0.004z" fill="#BCBEC0" clip-rule="evenodd" fill-rule="evenodd"/>
  <text style="cursor: move;" font-weight="bold" stroke="#000" xml:space="preserve" text-anchor="start" font-family="Junction, sans-serif" font-size="12" id="svg_27" y="14.521425" x="19.431897" stroke-opacity="null" stroke-width="0" fill="#ffffff">mage.coach</text>
 </g>
</svg>